<?xml version="1.0" encoding="UTF-8" standalone="no"?>
<!DOCTYPE svg PUBLIC "-//W3C//DTD SVG 1.1//EN"
 "http://www.w3.org/Graphics/SVG/1.1/DTD/svg11.dtd">
<!-- Generated by graphviz version 2.47.0 (20210316.0004)
 -->
<!-- Title: dependencies Pages: 1 -->
<svg width="568pt" height="211pt"
 viewBox="0.00 0.00 568.00 211.00" xmlns="http://www.w3.org/2000/svg" xmlns:xlink="http://www.w3.org/1999/xlink">
<g id="graph0" class="graph" transform="scale(1 1) rotate(0) translate(4 207)">
<title>dependencies</title>
<polygon fill="white" stroke="transparent" points="-4,4 -4,-207 564,-207 564,4 -4,4"/>
<text text-anchor="start" x="259.01" y="-42.4" font-family="Times-12" font-weight="bold" font-size="14.00">Legend</text>
<polygon fill="#ffffb3" stroke="transparent" points="46,-10 46,-30 66,-30 66,-10 46,-10"/>
<text text-anchor="start" x="69.63" y="-15.4" font-family="Times-12" font-size="14.00"> &#160;Declarations</text>
<polygon fill="#8dd3c7" stroke="transparent" points="159,-10 159,-30 179,-30 179,-10 159,-10"/>
<text text-anchor="start" x="182.73" y="-15.4" font-family="Times-12" font-size="14.00"> &#160;Module</text>
<polygon fill="#80b1d3" stroke="transparent" points="245,-10 245,-30 265,-30 265,-10 245,-10"/>
<text text-anchor="start" x="268.78" y="-15.4" font-family="Times-12" font-size="14.00"> &#160;Bootstrap</text>
<polygon fill="#fdb462" stroke="transparent" points="342,-10 342,-30 362,-30 362,-10 342,-10"/>
<text text-anchor="start" x="365.67" y="-15.4" font-family="Times-12" font-size="14.00"> &#160;Providers</text>
<polygon fill="#fb8072" stroke="transparent" points="438,-10 438,-30 458,-30 458,-10 438,-10"/>
<text text-anchor="start" x="461.73" y="-15.4" font-family="Times-12" font-size="14.00"> &#160;Exports</text>
<g id="clust1" class="cluster">
<title>cluster_AuthenticationModule</title>
<polygon fill="none" stroke="black" stroke-dasharray="1,5" points="8,-70 8,-195 552,-195 552,-70 8,-70"/>
</g>
<g id="clust5" class="cluster">
<title>cluster_AuthenticationModule_imports</title>
<polygon fill="none" stroke="black" points="224,-78 224,-130 544,-130 544,-78 224,-78"/>
</g>
<g id="clust2" class="cluster">
<title>cluster_AuthenticationModule_declarations</title>
<polygon fill="none" stroke="black" points="16,-78 16,-130 216,-130 216,-78 16,-78"/>
</g>
<!-- LoginPage -->
<g id="node1" class="node">
<title>LoginPage</title>
<polygon fill="#ffffb3" stroke="black" points="208.16,-122 131.84,-122 131.84,-86 208.16,-86 208.16,-122"/>
<text text-anchor="middle" x="170" y="-99.8" font-family="Times,serif" font-size="14.00">LoginPage</text>
</g>
<!-- AuthenticationModule -->
<g id="node3" class="node">
<title>AuthenticationModule</title>
<polygon fill="#8dd3c7" stroke="black" points="296.25,-187 293.25,-191 272.25,-191 269.25,-187 153.75,-187 153.75,-151 296.25,-151 296.25,-187"/>
<text text-anchor="middle" x="225" y="-164.8" font-family="Times,serif" font-size="14.00">AuthenticationModule</text>
</g>
<!-- LoginPage&#45;&gt;AuthenticationModule -->
<g id="edge1" class="edge">
<title>LoginPage&#45;&gt;AuthenticationModule</title>
<path fill="none" stroke="black" d="M180.98,-122.11C180.98,-122.11 180.98,-140.99 180.98,-140.99"/>
<polygon fill="black" stroke="black" points="177.48,-140.99 180.98,-150.99 184.48,-140.99 177.48,-140.99"/>
</g>
<!-- RegisterPage -->
<g id="node2" class="node">
<title>RegisterPage</title>
<polygon fill="#ffffb3" stroke="black" points="113.86,-122 24.14,-122 24.14,-86 113.86,-86 113.86,-122"/>
<text text-anchor="middle" x="69" y="-99.8" font-family="Times,serif" font-size="14.00">RegisterPage</text>
</g>
<!-- RegisterPage&#45;&gt;AuthenticationModule -->
<g id="edge2" class="edge">
<title>RegisterPage&#45;&gt;AuthenticationModule</title>
<path fill="none" stroke="black" d="M69,-122.11C69,-141.34 69,-169 69,-169 69,-169 143.39,-169 143.39,-169"/>
<polygon fill="black" stroke="black" points="143.39,-172.5 153.39,-169 143.39,-165.5 143.39,-172.5"/>
</g>
<!-- AuthenticationRoutingModule -->
<g id="node4" class="node">
<title>AuthenticationRoutingModule</title>
<polygon fill="#8dd3c7" stroke="black" points="535.87,-122 532.87,-126 511.87,-126 508.87,-122 348.13,-122 348.13,-86 535.87,-86 535.87,-122"/>
<text text-anchor="middle" x="442" y="-99.8" font-family="Times,serif" font-size="14.00">AuthenticationRoutingModule</text>
</g>
<!-- AuthenticationRoutingModule&#45;&gt;AuthenticationModule -->
<g id="edge3" class="edge">
<title>AuthenticationRoutingModule&#45;&gt;AuthenticationModule</title>
<path fill="none" stroke="black" d="M442,-122.11C442,-141.34 442,-169 442,-169 442,-169 306.35,-169 306.35,-169"/>
<polygon fill="black" stroke="black" points="306.35,-165.5 296.35,-169 306.35,-172.5 306.35,-165.5"/>
</g>
<!-- SharedModule -->
<g id="node5" class="node">
<title>SharedModule</title>
<polygon fill="#8dd3c7" stroke="black" points="330.42,-122 327.42,-126 306.42,-126 303.42,-122 231.58,-122 231.58,-86 330.42,-86 330.42,-122"/>
<text text-anchor="middle" x="281" y="-99.8" font-family="Times,serif" font-size="14.00">SharedModule</text>
</g>
<!-- SharedModule&#45;&gt;AuthenticationModule -->
<g id="edge4" class="edge">
<title>SharedModule&#45;&gt;AuthenticationModule</title>
<path fill="none" stroke="black" d="M264.08,-122.11C264.08,-122.11 264.08,-140.99 264.08,-140.99"/>
<polygon fill="black" stroke="black" points="260.58,-140.99 264.08,-150.99 267.58,-140.99 260.58,-140.99"/>
</g>
</g>
</svg>
