<?xml version="1.0" encoding="UTF-8" standalone="no"?>
<!DOCTYPE svg PUBLIC "-//W3C//DTD SVG 1.1//EN"
 "http://www.w3.org/Graphics/SVG/1.1/DTD/svg11.dtd">
<!-- Generated by graphviz version 2.47.0 (20210316.0004)
 -->
<!-- Title: dependencies Pages: 1 -->
<svg width="715pt" height="284pt"
 viewBox="0.00 0.00 715.00 284.00" xmlns="http://www.w3.org/2000/svg" xmlns:xlink="http://www.w3.org/1999/xlink">
<g id="graph0" class="graph" transform="scale(1 1) rotate(0) translate(4 280)">
<title>dependencies</title>
<polygon fill="white" stroke="transparent" points="-4,4 -4,-280 711,-280 711,4 -4,4"/>
<text text-anchor="start" x="332.51" y="-42.4" font-family="Times-12" font-weight="bold" font-size="14.00">Legend</text>
<polygon fill="#ffffb3" stroke="transparent" points="119.5,-10 119.5,-30 139.5,-30 139.5,-10 119.5,-10"/>
<text text-anchor="start" x="143.13" y="-15.4" font-family="Times-12" font-size="14.00"> &#160;Declarations</text>
<polygon fill="#8dd3c7" stroke="transparent" points="232.5,-10 232.5,-30 252.5,-30 252.5,-10 232.5,-10"/>
<text text-anchor="start" x="256.23" y="-15.4" font-family="Times-12" font-size="14.00"> &#160;Module</text>
<polygon fill="#80b1d3" stroke="transparent" points="318.5,-10 318.5,-30 338.5,-30 338.5,-10 318.5,-10"/>
<text text-anchor="start" x="342.28" y="-15.4" font-family="Times-12" font-size="14.00"> &#160;Bootstrap</text>
<polygon fill="#fdb462" stroke="transparent" points="415.5,-10 415.5,-30 435.5,-30 435.5,-10 415.5,-10"/>
<text text-anchor="start" x="439.17" y="-15.4" font-family="Times-12" font-size="14.00"> &#160;Providers</text>
<polygon fill="#fb8072" stroke="transparent" points="511.5,-10 511.5,-30 531.5,-30 531.5,-10 511.5,-10"/>
<text text-anchor="start" x="535.23" y="-15.4" font-family="Times-12" font-size="14.00"> &#160;Exports</text>
<g id="clust1" class="cluster">
<title>cluster_APICatalogueModule</title>
<polygon fill="none" stroke="black" stroke-dasharray="1,5" points="8,-70 8,-268 699,-268 699,-70 8,-70"/>
</g>
<g id="clust5" class="cluster">
<title>cluster_APICatalogueModule_imports</title>
<polygon fill="none" stroke="black" points="375,-78 375,-130 691,-130 691,-78 375,-78"/>
</g>
<g id="clust6" class="cluster">
<title>cluster_APICatalogueModule_exports</title>
<polygon fill="none" stroke="black" points="250,-208 250,-260 450,-260 450,-208 250,-208"/>
</g>
<g id="clust2" class="cluster">
<title>cluster_APICatalogueModule_declarations</title>
<polygon fill="none" stroke="black" points="16,-78 16,-130 367,-130 367,-78 16,-78"/>
</g>
<!-- ApiCatalogueListComponent -->
<g id="node1" class="node">
<title>ApiCatalogueListComponent</title>
<polygon fill="#ffffb3" stroke="black" points="359.37,-122 178.63,-122 178.63,-86 359.37,-86 359.37,-122"/>
<text text-anchor="middle" x="269" y="-99.8" font-family="Times,serif" font-size="14.00">ApiCatalogueListComponent</text>
</g>
<!-- APICatalogueModule -->
<g id="node3" class="node">
<title>APICatalogueModule</title>
<polygon fill="#8dd3c7" stroke="black" points="419.36,-187 416.36,-191 395.36,-191 392.36,-187 280.64,-187 280.64,-151 419.36,-151 419.36,-187"/>
<text text-anchor="middle" x="350" y="-164.8" font-family="Times,serif" font-size="14.00">APICatalogueModule</text>
</g>
<!-- ApiCatalogueListComponent&#45;&gt;APICatalogueModule -->
<g id="edge1" class="edge">
<title>ApiCatalogueListComponent&#45;&gt;APICatalogueModule</title>
<path fill="none" stroke="black" d="M320,-122.11C320,-122.11 320,-140.99 320,-140.99"/>
<polygon fill="black" stroke="black" points="316.5,-140.99 320,-150.99 323.5,-140.99 316.5,-140.99"/>
</g>
<!-- ApiDetailComponent -->
<g id="node2" class="node">
<title>ApiDetailComponent</title>
<polygon fill="#ffffb3" stroke="black" points="160.04,-122 23.96,-122 23.96,-86 160.04,-86 160.04,-122"/>
<text text-anchor="middle" x="92" y="-99.8" font-family="Times,serif" font-size="14.00">ApiDetailComponent</text>
</g>
<!-- ApiDetailComponent&#45;&gt;APICatalogueModule -->
<g id="edge2" class="edge">
<title>ApiDetailComponent&#45;&gt;APICatalogueModule</title>
<path fill="none" stroke="black" d="M92,-122.11C92,-141.34 92,-169 92,-169 92,-169 270.52,-169 270.52,-169"/>
<polygon fill="black" stroke="black" points="270.52,-172.5 280.52,-169 270.52,-165.5 270.52,-172.5"/>
</g>
<!-- ApiCatalogueListComponent  -->
<g id="node6" class="node">
<title>ApiCatalogueListComponent </title>
<polygon fill="#fb8072" stroke="black" points="442.37,-252 257.63,-252 257.63,-216 442.37,-216 442.37,-252"/>
<text text-anchor="middle" x="350" y="-229.8" font-family="Times,serif" font-size="14.00">ApiCatalogueListComponent </text>
</g>
<!-- APICatalogueModule&#45;&gt;ApiCatalogueListComponent  -->
<g id="edge5" class="edge">
<title>APICatalogueModule&#45;&gt;ApiCatalogueListComponent </title>
<path fill="none" stroke="black" stroke-dasharray="5,2" d="M350,-187.11C350,-187.11 350,-205.99 350,-205.99"/>
<polygon fill="black" stroke="black" points="346.5,-205.99 350,-215.99 353.5,-205.99 346.5,-205.99"/>
</g>
<!-- APICatalogueRoutingModule -->
<g id="node4" class="node">
<title>APICatalogueRoutingModule</title>
<polygon fill="#8dd3c7" stroke="black" points="682.98,-122 679.98,-126 658.98,-126 655.98,-122 499.02,-122 499.02,-86 682.98,-86 682.98,-122"/>
<text text-anchor="middle" x="591" y="-99.8" font-family="Times,serif" font-size="14.00">APICatalogueRoutingModule</text>
</g>
<!-- APICatalogueRoutingModule&#45;&gt;APICatalogueModule -->
<g id="edge3" class="edge">
<title>APICatalogueRoutingModule&#45;&gt;APICatalogueModule</title>
<path fill="none" stroke="black" d="M591,-122.11C591,-141.34 591,-169 591,-169 591,-169 429.38,-169 429.38,-169"/>
<polygon fill="black" stroke="black" points="429.38,-165.5 419.38,-169 429.38,-172.5 429.38,-165.5"/>
</g>
<!-- SharedModule -->
<g id="node5" class="node">
<title>SharedModule</title>
<polygon fill="#8dd3c7" stroke="black" points="481.42,-122 478.42,-126 457.42,-126 454.42,-122 382.58,-122 382.58,-86 481.42,-86 481.42,-122"/>
<text text-anchor="middle" x="432" y="-99.8" font-family="Times,serif" font-size="14.00">SharedModule</text>
</g>
<!-- SharedModule&#45;&gt;APICatalogueModule -->
<g id="edge4" class="edge">
<title>SharedModule&#45;&gt;APICatalogueModule</title>
<path fill="none" stroke="black" d="M401.11,-122.11C401.11,-122.11 401.11,-140.99 401.11,-140.99"/>
<polygon fill="black" stroke="black" points="397.61,-140.99 401.11,-150.99 404.61,-140.99 397.61,-140.99"/>
</g>
</g>
</svg>
