<?xml version="1.0" encoding="UTF-8" standalone="no"?>
<!DOCTYPE svg PUBLIC "-//W3C//DTD SVG 1.1//EN"
 "http://www.w3.org/Graphics/SVG/1.1/DTD/svg11.dtd">
<!-- Generated by graphviz version 2.47.0 (20210316.0004)
 -->
<!-- Title: dependencies Pages: 1 -->
<svg width="2309pt" height="284pt"
 viewBox="0.00 0.00 2309.00 284.00" xmlns="http://www.w3.org/2000/svg" xmlns:xlink="http://www.w3.org/1999/xlink">
<g id="graph0" class="graph" transform="scale(1 1) rotate(0) translate(4 280)">
<title>dependencies</title>
<polygon fill="white" stroke="transparent" points="-4,4 -4,-280 2305,-280 2305,4 -4,4"/>
<text text-anchor="start" x="1129.51" y="-42.4" font-family="Times-12" font-weight="bold" font-size="14.00">Legend</text>
<polygon fill="#ffffb3" stroke="transparent" points="916.5,-10 916.5,-30 936.5,-30 936.5,-10 916.5,-10"/>
<text text-anchor="start" x="940.13" y="-15.4" font-family="Times-12" font-size="14.00"> &#160;Declarations</text>
<polygon fill="#8dd3c7" stroke="transparent" points="1029.5,-10 1029.5,-30 1049.5,-30 1049.5,-10 1029.5,-10"/>
<text text-anchor="start" x="1053.23" y="-15.4" font-family="Times-12" font-size="14.00"> &#160;Module</text>
<polygon fill="#80b1d3" stroke="transparent" points="1115.5,-10 1115.5,-30 1135.5,-30 1135.5,-10 1115.5,-10"/>
<text text-anchor="start" x="1139.28" y="-15.4" font-family="Times-12" font-size="14.00"> &#160;Bootstrap</text>
<polygon fill="#fdb462" stroke="transparent" points="1212.5,-10 1212.5,-30 1232.5,-30 1232.5,-10 1212.5,-10"/>
<text text-anchor="start" x="1236.17" y="-15.4" font-family="Times-12" font-size="14.00"> &#160;Providers</text>
<polygon fill="#fb8072" stroke="transparent" points="1308.5,-10 1308.5,-30 1328.5,-30 1328.5,-10 1308.5,-10"/>
<text text-anchor="start" x="1332.23" y="-15.4" font-family="Times-12" font-size="14.00"> &#160;Exports</text>
<g id="clust1" class="cluster">
<title>cluster_SharedModule</title>
<polygon fill="none" stroke="black" stroke-dasharray="1,5" points="8,-70 8,-268 2293,-268 2293,-70 8,-70"/>
</g>
<g id="clust16" class="cluster">
<title>cluster_SharedModule_imports</title>
<polygon fill="none" stroke="black" points="2124,-78 2124,-130 2246,-130 2246,-78 2124,-78"/>
</g>
<g id="clust2" class="cluster">
<title>cluster_SharedModule_declarations</title>
<polygon fill="none" stroke="black" points="22,-78 22,-130 2116,-130 2116,-78 22,-78"/>
</g>
<g id="clust17" class="cluster">
<title>cluster_SharedModule_exports</title>
<polygon fill="none" stroke="black" points="16,-208 16,-260 2285,-260 2285,-208 16,-208"/>
</g>
<!-- AlertComponent -->
<g id="node1" class="node">
<title>AlertComponent</title>
<polygon fill="#ffffb3" stroke="black" points="2108.1,-122 1997.9,-122 1997.9,-86 2108.1,-86 2108.1,-122"/>
<text text-anchor="middle" x="2053" y="-99.8" font-family="Times,serif" font-size="14.00">AlertComponent</text>
</g>
<!-- SharedModule -->
<g id="node14" class="node">
<title>SharedModule</title>
<polygon fill="#8dd3c7" stroke="black" points="1362.42,-187 1359.42,-191 1338.42,-191 1335.42,-187 1263.58,-187 1263.58,-151 1362.42,-151 1362.42,-187"/>
<text text-anchor="middle" x="1313" y="-164.8" font-family="Times,serif" font-size="14.00">SharedModule</text>
</g>
<!-- AlertComponent&#45;&gt;SharedModule -->
<g id="edge1" class="edge">
<title>AlertComponent&#45;&gt;SharedModule</title>
<path fill="none" stroke="black" d="M2053,-122.27C2053,-140.56 2053,-166 2053,-166 2053,-166 1372.41,-166 1372.41,-166"/>
<polygon fill="black" stroke="black" points="1372.41,-162.5 1362.41,-166 1372.41,-169.5 1372.41,-162.5"/>
</g>
<!-- ApiKeyFormComponent -->
<g id="node2" class="node">
<title>ApiKeyFormComponent</title>
<polygon fill="#ffffb3" stroke="black" points="1979.98,-122 1824.02,-122 1824.02,-86 1979.98,-86 1979.98,-122"/>
<text text-anchor="middle" x="1902" y="-99.8" font-family="Times,serif" font-size="14.00">ApiKeyFormComponent</text>
</g>
<!-- ApiKeyFormComponent&#45;&gt;SharedModule -->
<g id="edge2" class="edge">
<title>ApiKeyFormComponent&#45;&gt;SharedModule</title>
<path fill="none" stroke="black" d="M1835.33,-122.02C1835.33,-139.37 1835.33,-163 1835.33,-163 1835.33,-163 1372.61,-163 1372.61,-163"/>
<polygon fill="black" stroke="black" points="1372.61,-159.5 1362.61,-163 1372.61,-166.5 1372.61,-159.5"/>
</g>
<!-- ButtonComponent -->
<g id="node3" class="node">
<title>ButtonComponent</title>
<polygon fill="#ffffb3" stroke="black" points="1805.95,-122 1686.05,-122 1686.05,-86 1805.95,-86 1805.95,-122"/>
<text text-anchor="middle" x="1746" y="-99.8" font-family="Times,serif" font-size="14.00">ButtonComponent</text>
</g>
<!-- ButtonComponent&#45;&gt;SharedModule -->
<g id="edge3" class="edge">
<title>ButtonComponent&#45;&gt;SharedModule</title>
<path fill="none" stroke="black" d="M1690.07,-122.04C1690.07,-138.73 1690.07,-161 1690.07,-161 1690.07,-161 1372.3,-161 1372.3,-161"/>
<polygon fill="black" stroke="black" points="1372.3,-157.5 1362.3,-161 1372.3,-164.5 1372.3,-157.5"/>
</g>
<!-- FeaturesComponent -->
<g id="node4" class="node">
<title>FeaturesComponent</title>
<polygon fill="#ffffb3" stroke="black" points="1668.25,-122 1539.75,-122 1539.75,-86 1668.25,-86 1668.25,-122"/>
<text text-anchor="middle" x="1604" y="-99.8" font-family="Times,serif" font-size="14.00">FeaturesComponent</text>
</g>
<!-- FeaturesComponent&#45;&gt;SharedModule -->
<g id="edge4" class="edge">
<title>FeaturesComponent&#45;&gt;SharedModule</title>
<path fill="none" stroke="black" d="M1546.97,-122.01C1546.97,-138.05 1546.97,-159 1546.97,-159 1546.97,-159 1372.33,-159 1372.33,-159"/>
<polygon fill="black" stroke="black" points="1372.33,-155.5 1362.33,-159 1372.33,-162.5 1372.33,-155.5"/>
</g>
<!-- FooterComponent -->
<g id="node5" class="node">
<title>FooterComponent</title>
<polygon fill="#ffffb3" stroke="black" points="1521.88,-122 1404.12,-122 1404.12,-86 1521.88,-86 1521.88,-122"/>
<text text-anchor="middle" x="1463" y="-99.8" font-family="Times,serif" font-size="14.00">FooterComponent</text>
</g>
<!-- FooterComponent&#45;&gt;SharedModule -->
<g id="edge5" class="edge">
<title>FooterComponent&#45;&gt;SharedModule</title>
<path fill="none" stroke="black" d="M1443.35,-122.05C1443.35,-136.37 1443.35,-154 1443.35,-154 1443.35,-154 1372.28,-154 1372.28,-154"/>
<polygon fill="black" stroke="black" points="1372.28,-150.5 1362.28,-154 1372.28,-157.5 1372.28,-150.5"/>
</g>
<!-- FooterComponent&#45;&gt;SharedModule -->
<g id="edge6" class="edge">
<title>FooterComponent&#45;&gt;SharedModule</title>
<path fill="none" stroke="black" d="M1482.65,-122.19C1482.65,-137.18 1482.65,-156 1482.65,-156 1482.65,-156 1372.52,-156 1372.52,-156"/>
<polygon fill="black" stroke="black" points="1372.52,-152.5 1362.52,-156 1372.52,-159.5 1372.52,-152.5"/>
</g>
<!-- HelpCenterComponent -->
<g id="node6" class="node">
<title>HelpCenterComponent</title>
<polygon fill="#ffffb3" stroke="black" points="1385.86,-122 1240.14,-122 1240.14,-86 1385.86,-86 1385.86,-122"/>
<text text-anchor="middle" x="1313" y="-99.8" font-family="Times,serif" font-size="14.00">HelpCenterComponent</text>
</g>
<!-- HelpCenterComponent&#45;&gt;SharedModule -->
<g id="edge7" class="edge">
<title>HelpCenterComponent&#45;&gt;SharedModule</title>
<path fill="none" stroke="black" d="M1313,-122.11C1313,-122.11 1313,-140.99 1313,-140.99"/>
<polygon fill="black" stroke="black" points="1309.5,-140.99 1313,-150.99 1316.5,-140.99 1309.5,-140.99"/>
</g>
<!-- HeroComponent -->
<g id="node7" class="node">
<title>HeroComponent</title>
<polygon fill="#ffffb3" stroke="black" points="1221.81,-122 1112.19,-122 1112.19,-86 1221.81,-86 1221.81,-122"/>
<text text-anchor="middle" x="1167" y="-99.8" font-family="Times,serif" font-size="14.00">HeroComponent</text>
</g>
<!-- HeroComponent&#45;&gt;SharedModule -->
<g id="edge8" class="edge">
<title>HeroComponent&#45;&gt;SharedModule</title>
<path fill="none" stroke="black" d="M1174.71,-122.05C1174.71,-136.37 1174.71,-154 1174.71,-154 1174.71,-154 1253.47,-154 1253.47,-154"/>
<polygon fill="black" stroke="black" points="1253.47,-157.5 1263.47,-154 1253.47,-150.5 1253.47,-157.5"/>
</g>
<!-- NavbarComponent -->
<g id="node8" class="node">
<title>NavbarComponent</title>
<polygon fill="#ffffb3" stroke="black" points="1094.03,-122 971.97,-122 971.97,-86 1094.03,-86 1094.03,-122"/>
<text text-anchor="middle" x="1033" y="-99.8" font-family="Times,serif" font-size="14.00">NavbarComponent</text>
</g>
<!-- NavbarComponent&#45;&gt;SharedModule -->
<g id="edge9" class="edge">
<title>NavbarComponent&#45;&gt;SharedModule</title>
<path fill="none" stroke="black" d="M1039.12,-122.19C1039.12,-137.18 1039.12,-156 1039.12,-156 1039.12,-156 1253.72,-156 1253.72,-156"/>
<polygon fill="black" stroke="black" points="1253.72,-159.5 1263.72,-156 1253.72,-152.5 1253.72,-159.5"/>
</g>
<!-- SearchApiComponent -->
<g id="node9" class="node">
<title>SearchApiComponent</title>
<polygon fill="#ffffb3" stroke="black" points="954.42,-122 813.58,-122 813.58,-86 954.42,-86 954.42,-122"/>
<text text-anchor="middle" x="884" y="-99.8" font-family="Times,serif" font-size="14.00">SearchApiComponent</text>
</g>
<!-- SearchApiComponent&#45;&gt;SharedModule -->
<g id="edge10" class="edge">
<title>SearchApiComponent&#45;&gt;SharedModule</title>
<path fill="none" stroke="black" d="M888.12,-122.01C888.12,-138.05 888.12,-159 888.12,-159 888.12,-159 1253.43,-159 1253.43,-159"/>
<polygon fill="black" stroke="black" points="1253.43,-162.5 1263.43,-159 1253.43,-155.5 1253.43,-162.5"/>
</g>
<!-- SidebarComponent -->
<g id="node10" class="node">
<title>SidebarComponent</title>
<polygon fill="#ffffb3" stroke="black" points="796.1,-122 671.9,-122 671.9,-86 796.1,-86 796.1,-122"/>
<text text-anchor="middle" x="734" y="-99.8" font-family="Times,serif" font-size="14.00">SidebarComponent</text>
</g>
<!-- SidebarComponent&#45;&gt;SharedModule -->
<g id="edge11" class="edge">
<title>SidebarComponent&#45;&gt;SharedModule</title>
<path fill="none" stroke="black" d="M736.12,-122.04C736.12,-138.73 736.12,-161 736.12,-161 736.12,-161 1253.57,-161 1253.57,-161"/>
<polygon fill="black" stroke="black" points="1253.57,-164.5 1263.57,-161 1253.57,-157.5 1253.57,-164.5"/>
</g>
<!-- TableSubscribedApiCostComponent -->
<g id="node11" class="node">
<title>TableSubscribedApiCostComponent</title>
<polygon fill="#ffffb3" stroke="black" points="654.08,-122 431.92,-122 431.92,-86 654.08,-86 654.08,-122"/>
<text text-anchor="middle" x="543" y="-99.8" font-family="Times,serif" font-size="14.00">TableSubscribedApiCostComponent</text>
</g>
<!-- TableSubscribedApiCostComponent&#45;&gt;SharedModule -->
<g id="edge12" class="edge">
<title>TableSubscribedApiCostComponent&#45;&gt;SharedModule</title>
<path fill="none" stroke="black" d="M506.15,-122.02C506.15,-139.37 506.15,-163 506.15,-163 506.15,-163 1253.74,-163 1253.74,-163"/>
<polygon fill="black" stroke="black" points="1253.74,-166.5 1263.74,-163 1253.74,-159.5 1253.74,-166.5"/>
</g>
<!-- TableSubscribedApisComponent -->
<g id="node12" class="node">
<title>TableSubscribedApisComponent</title>
<polygon fill="#ffffb3" stroke="black" points="413.85,-122 212.15,-122 212.15,-86 413.85,-86 413.85,-122"/>
<text text-anchor="middle" x="313" y="-99.8" font-family="Times,serif" font-size="14.00">TableSubscribedApisComponent</text>
</g>
<!-- TableSubscribedApisComponent&#45;&gt;SharedModule -->
<g id="edge13" class="edge">
<title>TableSubscribedApisComponent&#45;&gt;SharedModule</title>
<path fill="none" stroke="black" d="M346.64,-122.27C346.64,-140.56 346.64,-166 346.64,-166 346.64,-166 1253.75,-166 1253.75,-166"/>
<polygon fill="black" stroke="black" points="1253.75,-169.5 1263.75,-166 1253.75,-162.5 1253.75,-169.5"/>
</g>
<!-- UserApiUsageComponent -->
<g id="node13" class="node">
<title>UserApiUsageComponent</title>
<polygon fill="#ffffb3" stroke="black" points="193.74,-122 30.26,-122 30.26,-86 193.74,-86 193.74,-122"/>
<text text-anchor="middle" x="112" y="-99.8" font-family="Times,serif" font-size="14.00">UserApiUsageComponent</text>
</g>
<!-- UserApiUsageComponent&#45;&gt;SharedModule -->
<g id="edge14" class="edge">
<title>UserApiUsageComponent&#45;&gt;SharedModule</title>
<path fill="none" stroke="black" d="M137.79,-122.17C137.79,-141.09 137.79,-168 137.79,-168 137.79,-168 1253.63,-168 1253.63,-168"/>
<polygon fill="black" stroke="black" points="1253.63,-171.5 1263.63,-168 1253.63,-164.5 1253.63,-171.5"/>
</g>
<!-- AlertComponent  -->
<g id="node16" class="node">
<title>AlertComponent </title>
<polygon fill="#fb8072" stroke="black" points="2276.6,-252 2163.4,-252 2163.4,-216 2276.6,-216 2276.6,-252"/>
<text text-anchor="middle" x="2220" y="-229.8" font-family="Times,serif" font-size="14.00">AlertComponent </text>
</g>
<!-- SharedModule&#45;&gt;AlertComponent  -->
<g id="edge16" class="edge">
<title>SharedModule&#45;&gt;AlertComponent </title>
<path fill="none" stroke="black" stroke-dasharray="5,2" d="M1362.32,-171C1548.87,-171 2200.84,-171 2200.84,-171 2200.84,-171 2200.84,-205.78 2200.84,-205.78"/>
<polygon fill="black" stroke="black" points="2197.34,-205.78 2200.84,-215.78 2204.34,-205.78 2197.34,-205.78"/>
</g>
<!-- ApiKeyFormComponent  -->
<g id="node17" class="node">
<title>ApiKeyFormComponent </title>
<polygon fill="#fb8072" stroke="black" points="2144.99,-252 1985.01,-252 1985.01,-216 2144.99,-216 2144.99,-252"/>
<text text-anchor="middle" x="2065" y="-229.8" font-family="Times,serif" font-size="14.00">ApiKeyFormComponent </text>
</g>
<!-- SharedModule&#45;&gt;ApiKeyFormComponent  -->
<g id="edge17" class="edge">
<title>SharedModule&#45;&gt;ApiKeyFormComponent </title>
<path fill="none" stroke="black" stroke-dasharray="5,2" d="M1362.35,-173C1518.51,-173 1991.61,-173 1991.61,-173 1991.61,-173 1991.61,-205.7 1991.61,-205.7"/>
<polygon fill="black" stroke="black" points="1988.11,-205.7 1991.61,-215.7 1995.11,-205.7 1988.11,-205.7"/>
</g>
<!-- ButtonComponent  -->
<g id="node18" class="node">
<title>ButtonComponent </title>
<polygon fill="#fb8072" stroke="black" points="1967.45,-252 1844.55,-252 1844.55,-216 1967.45,-216 1967.45,-252"/>
<text text-anchor="middle" x="1906" y="-229.8" font-family="Times,serif" font-size="14.00">ButtonComponent </text>
</g>
<!-- SharedModule&#45;&gt;ButtonComponent  -->
<g id="edge18" class="edge">
<title>SharedModule&#45;&gt;ButtonComponent </title>
<path fill="none" stroke="black" stroke-dasharray="5,2" d="M1362.29,-175C1504.58,-175 1906,-175 1906,-175 1906,-175 1906,-205.98 1906,-205.98"/>
<polygon fill="black" stroke="black" points="1902.5,-205.98 1906,-215.98 1909.5,-205.98 1902.5,-205.98"/>
</g>
<!-- FeaturesComponent  -->
<g id="node19" class="node">
<title>FeaturesComponent </title>
<polygon fill="#fb8072" stroke="black" points="1826.25,-252 1693.75,-252 1693.75,-216 1826.25,-216 1826.25,-252"/>
<text text-anchor="middle" x="1760" y="-229.8" font-family="Times,serif" font-size="14.00">FeaturesComponent </text>
</g>
<!-- SharedModule&#45;&gt;FeaturesComponent  -->
<g id="edge19" class="edge">
<title>SharedModule&#45;&gt;FeaturesComponent </title>
<path fill="none" stroke="black" stroke-dasharray="5,2" d="M1362.26,-178C1476.49,-178 1749.8,-178 1749.8,-178 1749.8,-178 1749.8,-205.97 1749.8,-205.97"/>
<polygon fill="black" stroke="black" points="1746.3,-205.97 1749.8,-215.97 1753.3,-205.97 1746.3,-205.97"/>
</g>
<!-- FooterComponent  -->
<g id="node20" class="node">
<title>FooterComponent </title>
<polygon fill="#fb8072" stroke="black" points="1675.88,-252 1554.12,-252 1554.12,-216 1675.88,-216 1675.88,-252"/>
<text text-anchor="middle" x="1615" y="-229.8" font-family="Times,serif" font-size="14.00">FooterComponent </text>
</g>
<!-- SharedModule&#45;&gt;FooterComponent  -->
<g id="edge20" class="edge">
<title>SharedModule&#45;&gt;FooterComponent </title>
<path fill="none" stroke="black" stroke-dasharray="5,2" d="M1362.3,-183C1442.49,-183 1592.33,-183 1592.33,-183 1592.33,-183 1592.33,-205.88 1592.33,-205.88"/>
<polygon fill="black" stroke="black" points="1588.83,-205.88 1592.33,-215.88 1595.83,-205.88 1588.83,-205.88"/>
</g>
<!-- SharedModule&#45;&gt;FooterComponent  -->
<g id="edge21" class="edge">
<title>SharedModule&#45;&gt;FooterComponent </title>
<path fill="none" stroke="black" stroke-dasharray="5,2" d="M1362.24,-180C1451.38,-180 1630.35,-180 1630.35,-180 1630.35,-180 1630.35,-205.72 1630.35,-205.72"/>
<polygon fill="black" stroke="black" points="1626.85,-205.72 1630.35,-215.72 1633.85,-205.72 1626.85,-205.72"/>
</g>
<!-- HelpCenterComponent  -->
<g id="node21" class="node">
<title>HelpCenterComponent </title>
<polygon fill="#fb8072" stroke="black" points="1536.86,-252 1387.14,-252 1387.14,-216 1536.86,-216 1536.86,-252"/>
<text text-anchor="middle" x="1462" y="-229.8" font-family="Times,serif" font-size="14.00">HelpCenterComponent </text>
</g>
<!-- SharedModule&#45;&gt;HelpCenterComponent  -->
<g id="edge22" class="edge">
<title>SharedModule&#45;&gt;HelpCenterComponent </title>
<path fill="none" stroke="black" stroke-dasharray="5,2" d="M1362.53,-185C1380.14,-185 1395.69,-185 1395.69,-185 1395.69,-185 1395.69,-205.75 1395.69,-205.75"/>
<polygon fill="black" stroke="black" points="1392.19,-205.75 1395.69,-215.75 1399.19,-205.75 1392.19,-205.75"/>
</g>
<!-- HeroComponent  -->
<g id="node22" class="node">
<title>HeroComponent </title>
<polygon fill="#fb8072" stroke="black" points="1369.31,-252 1256.69,-252 1256.69,-216 1369.31,-216 1369.31,-252"/>
<text text-anchor="middle" x="1313" y="-229.8" font-family="Times,serif" font-size="14.00">HeroComponent </text>
</g>
<!-- SharedModule&#45;&gt;HeroComponent  -->
<g id="edge23" class="edge">
<title>SharedModule&#45;&gt;HeroComponent </title>
<path fill="none" stroke="black" stroke-dasharray="5,2" d="M1313,-187.11C1313,-187.11 1313,-205.99 1313,-205.99"/>
<polygon fill="black" stroke="black" points="1309.5,-205.99 1313,-215.99 1316.5,-205.99 1309.5,-205.99"/>
</g>
<!-- MaterialModule  -->
<g id="node23" class="node">
<title>MaterialModule </title>
<polygon fill="#fb8072" stroke="black" points="1238.47,-252 1127.53,-252 1127.53,-216 1238.47,-216 1238.47,-252"/>
<text text-anchor="middle" x="1183" y="-229.8" font-family="Times,serif" font-size="14.00">MaterialModule </text>
</g>
<!-- SharedModule&#45;&gt;MaterialModule  -->
<g id="edge24" class="edge">
<title>SharedModule&#45;&gt;MaterialModule </title>
<path fill="none" stroke="black" stroke-dasharray="5,2" d="M1263.73,-185C1245.84,-185 1229.95,-185 1229.95,-185 1229.95,-185 1229.95,-205.75 1229.95,-205.75"/>
<polygon fill="black" stroke="black" points="1226.45,-205.75 1229.95,-215.75 1233.45,-205.75 1226.45,-205.75"/>
</g>
<!-- NavbarComponent  -->
<g id="node24" class="node">
<title>NavbarComponent </title>
<polygon fill="#fb8072" stroke="black" points="1110.03,-252 983.97,-252 983.97,-216 1110.03,-216 1110.03,-252"/>
<text text-anchor="middle" x="1047" y="-229.8" font-family="Times,serif" font-size="14.00">NavbarComponent </text>
</g>
<!-- SharedModule&#45;&gt;NavbarComponent  -->
<g id="edge25" class="edge">
<title>SharedModule&#45;&gt;NavbarComponent </title>
<path fill="none" stroke="black" stroke-dasharray="5,2" d="M1263.56,-183C1201.24,-183 1102.14,-183 1102.14,-183 1102.14,-183 1102.14,-205.88 1102.14,-205.88"/>
<polygon fill="black" stroke="black" points="1098.64,-205.88 1102.14,-215.88 1105.64,-205.88 1098.64,-205.88"/>
</g>
<!-- SearchApiComponent  -->
<g id="node25" class="node">
<title>SearchApiComponent </title>
<polygon fill="#fb8072" stroke="black" points="965.92,-252 822.08,-252 822.08,-216 965.92,-216 965.92,-252"/>
<text text-anchor="middle" x="894" y="-229.8" font-family="Times,serif" font-size="14.00">SearchApiComponent </text>
</g>
<!-- SharedModule&#45;&gt;SearchApiComponent  -->
<g id="edge26" class="edge">
<title>SharedModule&#45;&gt;SearchApiComponent </title>
<path fill="none" stroke="black" stroke-dasharray="5,2" d="M1263.56,-180C1166.43,-180 960.08,-180 960.08,-180 960.08,-180 960.08,-205.72 960.08,-205.72"/>
<polygon fill="black" stroke="black" points="956.58,-205.72 960.08,-215.72 963.58,-205.72 956.58,-205.72"/>
</g>
<!-- SidebarComponent  -->
<g id="node26" class="node">
<title>SidebarComponent </title>
<polygon fill="#fb8072" stroke="black" points="803.6,-252 676.4,-252 676.4,-216 803.6,-216 803.6,-252"/>
<text text-anchor="middle" x="740" y="-229.8" font-family="Times,serif" font-size="14.00">SidebarComponent </text>
</g>
<!-- SharedModule&#45;&gt;SidebarComponent  -->
<g id="edge27" class="edge">
<title>SharedModule&#45;&gt;SidebarComponent </title>
<path fill="none" stroke="black" stroke-dasharray="5,2" d="M1263.34,-178C1134.58,-178 799.92,-178 799.92,-178 799.92,-178 799.92,-205.97 799.92,-205.97"/>
<polygon fill="black" stroke="black" points="796.42,-205.97 799.92,-215.97 803.42,-205.97 796.42,-205.97"/>
</g>
<!-- TableSubscribedApiCostComponent  -->
<g id="node27" class="node">
<title>TableSubscribedApiCostComponent </title>
<polygon fill="#fb8072" stroke="black" points="657.58,-252 432.42,-252 432.42,-216 657.58,-216 657.58,-252"/>
<text text-anchor="middle" x="545" y="-229.8" font-family="Times,serif" font-size="14.00">TableSubscribedApiCostComponent </text>
</g>
<!-- SharedModule&#45;&gt;TableSubscribedApiCostComponent  -->
<g id="edge28" class="edge">
<title>SharedModule&#45;&gt;TableSubscribedApiCostComponent </title>
<path fill="none" stroke="black" stroke-dasharray="5,2" d="M1263.77,-175C1099.45,-175 580.1,-175 580.1,-175 580.1,-175 580.1,-205.98 580.1,-205.98"/>
<polygon fill="black" stroke="black" points="576.6,-205.98 580.1,-215.98 583.6,-205.98 576.6,-205.98"/>
</g>
<!-- TableSubscribedApisComponent  -->
<g id="node28" class="node">
<title>TableSubscribedApisComponent </title>
<polygon fill="#fb8072" stroke="black" points="414.85,-252 209.15,-252 209.15,-216 414.85,-216 414.85,-252"/>
<text text-anchor="middle" x="312" y="-229.8" font-family="Times,serif" font-size="14.00">TableSubscribedApisComponent </text>
</g>
<!-- SharedModule&#45;&gt;TableSubscribedApisComponent  -->
<g id="edge29" class="edge">
<title>SharedModule&#45;&gt;TableSubscribedApisComponent </title>
<path fill="none" stroke="black" stroke-dasharray="5,2" d="M1263.49,-173C1057.55,-173 279.36,-173 279.36,-173 279.36,-173 279.36,-205.7 279.36,-205.7"/>
<polygon fill="black" stroke="black" points="275.86,-205.7 279.36,-215.7 282.86,-205.7 275.86,-205.7"/>
</g>
<!-- UserApiUsageComponent  -->
<g id="node29" class="node">
<title>UserApiUsageComponent </title>
<polygon fill="#fb8072" stroke="black" points="191.74,-252 24.26,-252 24.26,-216 191.74,-216 191.74,-252"/>
<text text-anchor="middle" x="108" y="-229.8" font-family="Times,serif" font-size="14.00">UserApiUsageComponent </text>
</g>
<!-- SharedModule&#45;&gt;UserApiUsageComponent  -->
<g id="edge30" class="edge">
<title>SharedModule&#45;&gt;UserApiUsageComponent </title>
<path fill="none" stroke="black" stroke-dasharray="5,2" d="M1263.68,-171C1034.42,-171 83.96,-171 83.96,-171 83.96,-171 83.96,-205.78 83.96,-205.78"/>
<polygon fill="black" stroke="black" points="80.46,-205.78 83.96,-215.78 87.46,-205.78 80.46,-205.78"/>
</g>
<!-- MaterialModule -->
<g id="node15" class="node">
<title>MaterialModule</title>
<polygon fill="#8dd3c7" stroke="black" points="2238.47,-122 2235.47,-126 2214.47,-126 2211.47,-122 2131.53,-122 2131.53,-86 2238.47,-86 2238.47,-122"/>
<text text-anchor="middle" x="2185" y="-99.8" font-family="Times,serif" font-size="14.00">MaterialModule</text>
</g>
<!-- MaterialModule&#45;&gt;SharedModule -->
<g id="edge15" class="edge">
<title>MaterialModule&#45;&gt;SharedModule</title>
<path fill="none" stroke="black" d="M2138.13,-122.17C2138.13,-141.09 2138.13,-168 2138.13,-168 2138.13,-168 1372.45,-168 1372.45,-168"/>
<polygon fill="black" stroke="black" points="1372.45,-164.5 1362.45,-168 1372.45,-171.5 1372.45,-164.5"/>
</g>
</g>
</svg>
