<?xml version="1.0" encoding="UTF-8" standalone="no"?>
<!DOCTYPE svg PUBLIC "-//W3C//DTD SVG 1.1//EN"
 "http://www.w3.org/Graphics/SVG/1.1/DTD/svg11.dtd">
<!-- Generated by graphviz version 2.47.0 (20210316.0004)
 -->
<!-- Title: dependencies Pages: 1 -->
<svg width="1070pt" height="211pt"
 viewBox="0.00 0.00 1070.00 211.00" xmlns="http://www.w3.org/2000/svg" xmlns:xlink="http://www.w3.org/1999/xlink">
<g id="graph0" class="graph" transform="scale(1 1) rotate(0) translate(4 207)">
<title>dependencies</title>
<polygon fill="white" stroke="transparent" points="-4,4 -4,-207 1066,-207 1066,4 -4,4"/>
<text text-anchor="start" x="510.01" y="-42.4" font-family="Times-12" font-weight="bold" font-size="14.00">Legend</text>
<polygon fill="#ffffb3" stroke="transparent" points="297,-10 297,-30 317,-30 317,-10 297,-10"/>
<text text-anchor="start" x="320.63" y="-15.4" font-family="Times-12" font-size="14.00"> &#160;Declarations</text>
<polygon fill="#8dd3c7" stroke="transparent" points="410,-10 410,-30 430,-30 430,-10 410,-10"/>
<text text-anchor="start" x="433.73" y="-15.4" font-family="Times-12" font-size="14.00"> &#160;Module</text>
<polygon fill="#80b1d3" stroke="transparent" points="496,-10 496,-30 516,-30 516,-10 496,-10"/>
<text text-anchor="start" x="519.78" y="-15.4" font-family="Times-12" font-size="14.00"> &#160;Bootstrap</text>
<polygon fill="#fdb462" stroke="transparent" points="593,-10 593,-30 613,-30 613,-10 593,-10"/>
<text text-anchor="start" x="616.67" y="-15.4" font-family="Times-12" font-size="14.00"> &#160;Providers</text>
<polygon fill="#fb8072" stroke="transparent" points="689,-10 689,-30 709,-30 709,-10 689,-10"/>
<text text-anchor="start" x="712.73" y="-15.4" font-family="Times-12" font-size="14.00"> &#160;Exports</text>
<g id="clust1" class="cluster">
<title>cluster_UserModule</title>
<polygon fill="none" stroke="black" stroke-dasharray="1,5" points="8,-70 8,-195 1054,-195 1054,-70 8,-70"/>
</g>
<g id="clust7" class="cluster">
<title>cluster_UserModule_imports</title>
<polygon fill="none" stroke="black" points="662,-78 662,-130 1046,-130 1046,-78 662,-78"/>
</g>
<g id="clust2" class="cluster">
<title>cluster_UserModule_declarations</title>
<polygon fill="none" stroke="black" points="16,-78 16,-130 654,-130 654,-78 16,-78"/>
</g>
<!-- BillingComponent -->
<g id="node1" class="node">
<title>BillingComponent</title>
<polygon fill="#ffffb3" stroke="black" points="646.23,-122 525.77,-122 525.77,-86 646.23,-86 646.23,-122"/>
<text text-anchor="middle" x="586" y="-99.8" font-family="Times,serif" font-size="14.00">BillingComponent</text>
</g>
<!-- UserModule -->
<g id="node5" class="node">
<title>UserModule</title>
<polygon fill="#8dd3c7" stroke="black" points="559.98,-187 556.98,-191 535.98,-191 532.98,-187 474.02,-187 474.02,-151 559.98,-151 559.98,-187"/>
<text text-anchor="middle" x="517" y="-164.8" font-family="Times,serif" font-size="14.00">UserModule</text>
</g>
<!-- BillingComponent&#45;&gt;UserModule -->
<g id="edge1" class="edge">
<title>BillingComponent&#45;&gt;UserModule</title>
<path fill="none" stroke="black" d="M542.94,-122.11C542.94,-122.11 542.94,-140.99 542.94,-140.99"/>
<polygon fill="black" stroke="black" points="539.44,-140.99 542.94,-150.99 546.44,-140.99 539.44,-140.99"/>
</g>
<!-- ProfileComponent -->
<g id="node2" class="node">
<title>ProfileComponent</title>
<polygon fill="#ffffb3" stroke="black" points="507.93,-122 388.07,-122 388.07,-86 507.93,-86 507.93,-122"/>
<text text-anchor="middle" x="448" y="-99.8" font-family="Times,serif" font-size="14.00">ProfileComponent</text>
</g>
<!-- ProfileComponent&#45;&gt;UserModule -->
<g id="edge2" class="edge">
<title>ProfileComponent&#45;&gt;UserModule</title>
<path fill="none" stroke="black" d="M490.86,-122.11C490.86,-122.11 490.86,-140.99 490.86,-140.99"/>
<polygon fill="black" stroke="black" points="487.36,-140.99 490.86,-150.99 494.36,-140.99 487.36,-140.99"/>
</g>
<!-- SubscribedApisComponent -->
<g id="node3" class="node">
<title>SubscribedApisComponent</title>
<polygon fill="#ffffb3" stroke="black" points="369.98,-122 200.02,-122 200.02,-86 369.98,-86 369.98,-122"/>
<text text-anchor="middle" x="285" y="-99.8" font-family="Times,serif" font-size="14.00">SubscribedApisComponent</text>
</g>
<!-- SubscribedApisComponent&#45;&gt;UserModule -->
<g id="edge3" class="edge">
<title>SubscribedApisComponent&#45;&gt;UserModule</title>
<path fill="none" stroke="black" d="M285,-122.02C285,-139.37 285,-163 285,-163 285,-163 463.91,-163 463.91,-163"/>
<polygon fill="black" stroke="black" points="463.91,-166.5 473.91,-163 463.91,-159.5 463.91,-166.5"/>
</g>
<!-- UserApiKeysComponent -->
<g id="node4" class="node">
<title>UserApiKeysComponent</title>
<polygon fill="#ffffb3" stroke="black" points="181.52,-122 24.48,-122 24.48,-86 181.52,-86 181.52,-122"/>
<text text-anchor="middle" x="103" y="-99.8" font-family="Times,serif" font-size="14.00">UserApiKeysComponent</text>
</g>
<!-- UserApiKeysComponent&#45;&gt;UserModule -->
<g id="edge4" class="edge">
<title>UserApiKeysComponent&#45;&gt;UserModule</title>
<path fill="none" stroke="black" d="M103,-122.28C103,-143.32 103,-175 103,-175 103,-175 463.87,-175 463.87,-175"/>
<polygon fill="black" stroke="black" points="463.87,-178.5 473.87,-175 463.87,-171.5 463.87,-178.5"/>
</g>
<!-- SharedModule -->
<g id="node6" class="node">
<title>SharedModule</title>
<polygon fill="#8dd3c7" stroke="black" points="1038.42,-122 1035.42,-126 1014.42,-126 1011.42,-122 939.58,-122 939.58,-86 1038.42,-86 1038.42,-122"/>
<text text-anchor="middle" x="989" y="-99.8" font-family="Times,serif" font-size="14.00">SharedModule</text>
</g>
<!-- SharedModule&#45;&gt;UserModule -->
<g id="edge5" class="edge">
<title>SharedModule&#45;&gt;UserModule</title>
<path fill="none" stroke="black" d="M989,-122.28C989,-143.32 989,-175 989,-175 989,-175 570.14,-175 570.14,-175"/>
<polygon fill="black" stroke="black" points="570.14,-171.5 560.14,-175 570.14,-178.5 570.14,-171.5"/>
</g>
<!-- UserAccountManagementRoutingModule -->
<g id="node7" class="node">
<title>UserAccountManagementRoutingModule</title>
<polygon fill="#8dd3c7" stroke="black" points="921.6,-122 918.6,-126 897.6,-126 894.6,-122 670.4,-122 670.4,-86 921.6,-86 921.6,-122"/>
<text text-anchor="middle" x="796" y="-99.8" font-family="Times,serif" font-size="14.00">UserAccountManagementRoutingModule</text>
</g>
<!-- UserAccountManagementRoutingModule&#45;&gt;UserModule -->
<g id="edge6" class="edge">
<title>UserAccountManagementRoutingModule&#45;&gt;UserModule</title>
<path fill="none" stroke="black" d="M796,-122.02C796,-139.37 796,-163 796,-163 796,-163 569.98,-163 569.98,-163"/>
<polygon fill="black" stroke="black" points="569.98,-159.5 559.98,-163 569.98,-166.5 569.98,-159.5"/>
</g>
</g>
</svg>
