<?xml version="1.0" encoding="UTF-8" standalone="no"?>
<!DOCTYPE svg PUBLIC "-//W3C//DTD SVG 1.1//EN"
 "http://www.w3.org/Graphics/SVG/1.1/DTD/svg11.dtd">
<!-- Generated by graphviz version 2.47.0 (20210316.0004)
 -->
<!-- Title: dependencies Pages: 1 -->
<svg width="1070pt" height="211pt"
 viewBox="0.00 0.00 1070.00 211.00" xmlns="http://www.w3.org/2000/svg" xmlns:xlink="http://www.w3.org/1999/xlink">
<g id="graph0" class="graph" transform="scale(1 1) rotate(0) translate(4 207)">
<title>dependencies</title>
<polygon fill="white" stroke="transparent" points="-4,4 -4,-207 1066,-207 1066,4 -4,4"/>
<text text-anchor="start" x="510.01" y="-42.4" font-family="Times-12" font-weight="bold" font-size="14.00">Legend</text>
<polygon fill="#ffffb3" stroke="transparent" points="297,-10 297,-30 317,-30 317,-10 297,-10"/>
<text text-anchor="start" x="320.63" y="-15.4" font-family="Times-12" font-size="14.00"> &#160;Declarations</text>
<polygon fill="#8dd3c7" stroke="transparent" points="410,-10 410,-30 430,-30 430,-10 410,-10"/>
<text text-anchor="start" x="433.73" y="-15.4" font-family="Times-12" font-size="14.00"> &#160;Module</text>
<polygon fill="#80b1d3" stroke="transparent" points="496,-10 496,-30 516,-30 516,-10 496,-10"/>
<text text-anchor="start" x="519.78" y="-15.4" font-family="Times-12" font-size="14.00"> &#160;Bootstrap</text>
<polygon fill="#fdb462" stroke="transparent" points="593,-10 593,-30 613,-30 613,-10 593,-10"/>
<text text-anchor="start" x="616.67" y="-15.4" font-family="Times-12" font-size="14.00"> &#160;Providers</text>
<polygon fill="#fb8072" stroke="transparent" points="689,-10 689,-30 709,-30 709,-10 689,-10"/>
<text text-anchor="start" x="712.73" y="-15.4" font-family="Times-12" font-size="14.00"> &#160;Exports</text>
<g id="clust1" class="cluster">
<title>cluster_UserModule</title>
<polygon fill="none" stroke="black" stroke-dasharray="1,5" points="8,-70 8,-195 1054,-195 1054,-70 8,-70"/>
</g>
<g id="clust2" class="cluster">
<title>cluster_UserModule_declarations</title>
<polygon fill="none" stroke="black" points="408,-78 408,-130 1046,-130 1046,-78 408,-78"/>
</g>
<g id="clust7" class="cluster">
<title>cluster_UserModule_imports</title>
<polygon fill="none" stroke="black" points="16,-78 16,-130 400,-130 400,-78 16,-78"/>
</g>
<!-- BillingComponent -->
<g id="node1" class="node">
<title>BillingComponent</title>
<polygon fill="#ffffb3" stroke="black" points="1038.23,-122 917.77,-122 917.77,-86 1038.23,-86 1038.23,-122"/>
<text text-anchor="middle" x="978" y="-99.8" font-family="Times,serif" font-size="14.00">BillingComponent</text>
</g>
<!-- UserModule -->
<g id="node5" class="node">
<title>UserModule</title>
<polygon fill="#8dd3c7" stroke="black" points="628.98,-187 625.98,-191 604.98,-191 601.98,-187 543.02,-187 543.02,-151 628.98,-151 628.98,-187"/>
<text text-anchor="middle" x="586" y="-164.8" font-family="Times,serif" font-size="14.00">UserModule</text>
</g>
<!-- BillingComponent&#45;&gt;UserModule -->
<g id="edge1" class="edge">
<title>BillingComponent&#45;&gt;UserModule</title>
<path fill="none" stroke="black" d="M978,-122.28C978,-143.32 978,-175 978,-175 978,-175 639.07,-175 639.07,-175"/>
<polygon fill="black" stroke="black" points="639.07,-171.5 629.07,-175 639.07,-178.5 639.07,-171.5"/>
</g>
<!-- ProfileComponent -->
<g id="node2" class="node">
<title>ProfileComponent</title>
<polygon fill="#ffffb3" stroke="black" points="899.93,-122 780.07,-122 780.07,-86 899.93,-86 899.93,-122"/>
<text text-anchor="middle" x="840" y="-99.8" font-family="Times,serif" font-size="14.00">ProfileComponent</text>
</g>
<!-- ProfileComponent&#45;&gt;UserModule -->
<g id="edge2" class="edge">
<title>ProfileComponent&#45;&gt;UserModule</title>
<path fill="none" stroke="black" d="M840,-122.02C840,-139.37 840,-163 840,-163 840,-163 639.09,-163 639.09,-163"/>
<polygon fill="black" stroke="black" points="639.09,-159.5 629.09,-163 639.09,-166.5 639.09,-159.5"/>
</g>
<!-- SubscribedApisComponent -->
<g id="node3" class="node">
<title>SubscribedApisComponent</title>
<polygon fill="#ffffb3" stroke="black" points="761.98,-122 592.02,-122 592.02,-86 761.98,-86 761.98,-122"/>
<text text-anchor="middle" x="677" y="-99.8" font-family="Times,serif" font-size="14.00">SubscribedApisComponent</text>
</g>
<!-- SubscribedApisComponent&#45;&gt;UserModule -->
<g id="edge3" class="edge">
<title>SubscribedApisComponent&#45;&gt;UserModule</title>
<path fill="none" stroke="black" d="M610.5,-122.11C610.5,-122.11 610.5,-140.99 610.5,-140.99"/>
<polygon fill="black" stroke="black" points="607,-140.99 610.5,-150.99 614,-140.99 607,-140.99"/>
</g>
<!-- UserApiKeysComponent -->
<g id="node4" class="node">
<title>UserApiKeysComponent</title>
<polygon fill="#ffffb3" stroke="black" points="573.52,-122 416.48,-122 416.48,-86 573.52,-86 573.52,-122"/>
<text text-anchor="middle" x="495" y="-99.8" font-family="Times,serif" font-size="14.00">UserApiKeysComponent</text>
</g>
<!-- UserApiKeysComponent&#45;&gt;UserModule -->
<g id="edge4" class="edge">
<title>UserApiKeysComponent&#45;&gt;UserModule</title>
<path fill="none" stroke="black" d="M558.39,-122.11C558.39,-122.11 558.39,-140.99 558.39,-140.99"/>
<polygon fill="black" stroke="black" points="554.89,-140.99 558.39,-150.99 561.89,-140.99 554.89,-140.99"/>
</g>
<!-- SharedModule -->
<g id="node6" class="node">
<title>SharedModule</title>
<polygon fill="#8dd3c7" stroke="black" points="392.42,-122 389.42,-126 368.42,-126 365.42,-122 293.58,-122 293.58,-86 392.42,-86 392.42,-122"/>
<text text-anchor="middle" x="343" y="-99.8" font-family="Times,serif" font-size="14.00">SharedModule</text>
</g>
<!-- SharedModule&#45;&gt;UserModule -->
<g id="edge5" class="edge">
<title>SharedModule&#45;&gt;UserModule</title>
<path fill="none" stroke="black" d="M343,-122.02C343,-139.37 343,-163 343,-163 343,-163 532.84,-163 532.84,-163"/>
<polygon fill="black" stroke="black" points="532.84,-166.5 542.84,-163 532.84,-159.5 532.84,-166.5"/>
</g>
<!-- UserAccountManagementRoutingModule -->
<g id="node7" class="node">
<title>UserAccountManagementRoutingModule</title>
<polygon fill="#8dd3c7" stroke="black" points="275.6,-122 272.6,-126 251.6,-126 248.6,-122 24.4,-122 24.4,-86 275.6,-86 275.6,-122"/>
<text text-anchor="middle" x="150" y="-99.8" font-family="Times,serif" font-size="14.00">UserAccountManagementRoutingModule</text>
</g>
<!-- UserAccountManagementRoutingModule&#45;&gt;UserModule -->
<g id="edge6" class="edge">
<title>UserAccountManagementRoutingModule&#45;&gt;UserModule</title>
<path fill="none" stroke="black" d="M150,-122.28C150,-143.32 150,-175 150,-175 150,-175 533,-175 533,-175"/>
<polygon fill="black" stroke="black" points="533,-178.5 543,-175 533,-171.5 533,-178.5"/>
</g>
</g>
</svg>
