<?xml version="1.0" encoding="UTF-8" standalone="no"?>
<!DOCTYPE svg PUBLIC "-//W3C//DTD SVG 1.1//EN"
 "http://www.w3.org/Graphics/SVG/1.1/DTD/svg11.dtd">
<!-- Generated by graphviz version 2.47.0 (20210316.0004)
 -->
<!-- Title: dependencies Pages: 1 -->
<svg width="504pt" height="284pt"
 viewBox="0.00 0.00 504.00 284.00" xmlns="http://www.w3.org/2000/svg" xmlns:xlink="http://www.w3.org/1999/xlink">
<g id="graph0" class="graph" transform="scale(1 1) rotate(0) translate(4 280)">
<title>dependencies</title>
<polygon fill="white" stroke="transparent" points="-4,4 -4,-280 500,-280 500,4 -4,4"/>
<text text-anchor="start" x="227.01" y="-42.4" font-family="Times-12" font-weight="bold" font-size="14.00">Legend</text>
<polygon fill="#ffffb3" stroke="transparent" points="14,-10 14,-30 34,-30 34,-10 14,-10"/>
<text text-anchor="start" x="37.63" y="-15.4" font-family="Times-12" font-size="14.00"> &#160;Declarations</text>
<polygon fill="#8dd3c7" stroke="transparent" points="127,-10 127,-30 147,-30 147,-10 127,-10"/>
<text text-anchor="start" x="150.73" y="-15.4" font-family="Times-12" font-size="14.00"> &#160;Module</text>
<polygon fill="#80b1d3" stroke="transparent" points="213,-10 213,-30 233,-30 233,-10 213,-10"/>
<text text-anchor="start" x="236.78" y="-15.4" font-family="Times-12" font-size="14.00"> &#160;Bootstrap</text>
<polygon fill="#fdb462" stroke="transparent" points="310,-10 310,-30 330,-30 330,-10 310,-10"/>
<text text-anchor="start" x="333.67" y="-15.4" font-family="Times-12" font-size="14.00"> &#160;Providers</text>
<polygon fill="#fb8072" stroke="transparent" points="406,-10 406,-30 426,-30 426,-10 406,-10"/>
<text text-anchor="start" x="429.73" y="-15.4" font-family="Times-12" font-size="14.00"> &#160;Exports</text>
<g id="clust1" class="cluster">
<title>cluster_PagesModule</title>
<polygon fill="none" stroke="black" stroke-dasharray="1,5" points="48,-70 48,-268 448,-268 448,-70 48,-70"/>
</g>
<g id="clust2" class="cluster">
<title>cluster_PagesModule_declarations</title>
<polygon fill="none" stroke="black" points="334,-78 334,-130 440,-130 440,-78 334,-78"/>
</g>
<g id="clust4" class="cluster">
<title>cluster_PagesModule_imports</title>
<polygon fill="none" stroke="black" points="56,-78 56,-130 326,-130 326,-78 56,-78"/>
</g>
<g id="clust5" class="cluster">
<title>cluster_PagesModule_exports</title>
<polygon fill="none" stroke="black" points="194,-208 194,-260 304,-260 304,-208 194,-208"/>
</g>
<!-- LandingPage -->
<g id="node1" class="node">
<title>LandingPage</title>
<polygon fill="#ffffb3" stroke="black" points="431.87,-122 342.13,-122 342.13,-86 431.87,-86 431.87,-122"/>
<text text-anchor="middle" x="387" y="-99.8" font-family="Times,serif" font-size="14.00">LandingPage</text>
</g>
<!-- PagesModule -->
<g id="node2" class="node">
<title>PagesModule</title>
<polygon fill="#8dd3c7" stroke="black" points="295.21,-187 292.21,-191 271.21,-191 268.21,-187 202.79,-187 202.79,-151 295.21,-151 295.21,-187"/>
<text text-anchor="middle" x="249" y="-164.8" font-family="Times,serif" font-size="14.00">PagesModule</text>
</g>
<!-- LandingPage&#45;&gt;PagesModule -->
<g id="edge1" class="edge">
<title>LandingPage&#45;&gt;PagesModule</title>
<path fill="none" stroke="black" d="M387,-122.11C387,-141.34 387,-169 387,-169 387,-169 305.34,-169 305.34,-169"/>
<polygon fill="black" stroke="black" points="305.34,-165.5 295.34,-169 305.34,-172.5 305.34,-165.5"/>
</g>
<!-- LandingPage  -->
<g id="node5" class="node">
<title>LandingPage </title>
<polygon fill="#fb8072" stroke="black" points="295.87,-252 202.13,-252 202.13,-216 295.87,-216 295.87,-252"/>
<text text-anchor="middle" x="249" y="-229.8" font-family="Times,serif" font-size="14.00">LandingPage </text>
</g>
<!-- PagesModule&#45;&gt;LandingPage  -->
<g id="edge4" class="edge">
<title>PagesModule&#45;&gt;LandingPage </title>
<path fill="none" stroke="black" stroke-dasharray="5,2" d="M249,-187.11C249,-187.11 249,-205.99 249,-205.99"/>
<polygon fill="black" stroke="black" points="245.5,-205.99 249,-215.99 252.5,-205.99 245.5,-205.99"/>
</g>
<!-- PagesRoutingModule -->
<g id="node3" class="node">
<title>PagesRoutingModule</title>
<polygon fill="#8dd3c7" stroke="black" points="317.82,-122 314.82,-126 293.82,-126 290.82,-122 180.18,-122 180.18,-86 317.82,-86 317.82,-122"/>
<text text-anchor="middle" x="249" y="-99.8" font-family="Times,serif" font-size="14.00">PagesRoutingModule</text>
</g>
<!-- PagesRoutingModule&#45;&gt;PagesModule -->
<g id="edge2" class="edge">
<title>PagesRoutingModule&#45;&gt;PagesModule</title>
<path fill="none" stroke="black" d="M249,-122.11C249,-122.11 249,-140.99 249,-140.99"/>
<polygon fill="black" stroke="black" points="245.5,-140.99 249,-150.99 252.5,-140.99 245.5,-140.99"/>
</g>
<!-- SharedModule -->
<g id="node4" class="node">
<title>SharedModule</title>
<polygon fill="#8dd3c7" stroke="black" points="162.42,-122 159.42,-126 138.42,-126 135.42,-122 63.58,-122 63.58,-86 162.42,-86 162.42,-122"/>
<text text-anchor="middle" x="113" y="-99.8" font-family="Times,serif" font-size="14.00">SharedModule</text>
</g>
<!-- SharedModule&#45;&gt;PagesModule -->
<g id="edge3" class="edge">
<title>SharedModule&#45;&gt;PagesModule</title>
<path fill="none" stroke="black" d="M113,-122.11C113,-141.34 113,-169 113,-169 113,-169 192.58,-169 192.58,-169"/>
<polygon fill="black" stroke="black" points="192.58,-172.5 202.58,-169 192.58,-165.5 192.58,-172.5"/>
</g>
</g>
</svg>
