<?xml version="1.0" encoding="UTF-8" standalone="no"?>
<!DOCTYPE svg PUBLIC "-//W3C//DTD SVG 1.1//EN"
 "http://www.w3.org/Graphics/SVG/1.1/DTD/svg11.dtd">
<!-- Generated by graphviz version 2.47.0 (20210316.0004)
 -->
<!-- Title: dependencies Pages: 1 -->
<svg width="7899pt" height="290pt"
 viewBox="0.00 0.00 7899.00 290.00" xmlns="http://www.w3.org/2000/svg" xmlns:xlink="http://www.w3.org/1999/xlink">
<g id="graph0" class="graph" transform="scale(1 1) rotate(0) translate(4 286)">
<title>dependencies</title>
<polygon fill="white" stroke="transparent" points="-4,4 -4,-286 7895,-286 7895,4 -4,4"/>
<text text-anchor="start" x="3924.51" y="-42.4" font-family="Times-12" font-weight="bold" font-size="14.00">Legend</text>
<polygon fill="#ffffb3" stroke="transparent" points="3711.5,-10 3711.5,-30 3731.5,-30 3731.5,-10 3711.5,-10"/>
<text text-anchor="start" x="3735.13" y="-15.4" font-family="Times-12" font-size="14.00"> &#160;Declarations</text>
<polygon fill="#8dd3c7" stroke="transparent" points="3824.5,-10 3824.5,-30 3844.5,-30 3844.5,-10 3824.5,-10"/>
<text text-anchor="start" x="3848.23" y="-15.4" font-family="Times-12" font-size="14.00"> &#160;Module</text>
<polygon fill="#80b1d3" stroke="transparent" points="3910.5,-10 3910.5,-30 3930.5,-30 3930.5,-10 3910.5,-10"/>
<text text-anchor="start" x="3934.28" y="-15.4" font-family="Times-12" font-size="14.00"> &#160;Bootstrap</text>
<polygon fill="#fdb462" stroke="transparent" points="4007.5,-10 4007.5,-30 4027.5,-30 4027.5,-10 4007.5,-10"/>
<text text-anchor="start" x="4031.17" y="-15.4" font-family="Times-12" font-size="14.00"> &#160;Providers</text>
<polygon fill="#fb8072" stroke="transparent" points="4103.5,-10 4103.5,-30 4123.5,-30 4123.5,-10 4103.5,-10"/>
<text text-anchor="start" x="4127.23" y="-15.4" font-family="Times-12" font-size="14.00"> &#160;Exports</text>
<g id="clust1" class="cluster">
<title>cluster_APICatalogueModule</title>
<polygon fill="none" stroke="black" stroke-dasharray="1,5" points="4532,-70 4532,-274 5223,-274 5223,-70 4532,-70"/>
</g>
<g id="clust2" class="cluster">
<title>cluster_APICatalogueModule_declarations</title>
<polygon fill="none" stroke="black" points="4864,-78 4864,-130 5215,-130 5215,-78 4864,-78"/>
</g>
<g id="clust5" class="cluster">
<title>cluster_APICatalogueModule_imports</title>
<polygon fill="none" stroke="black" points="4540,-78 4540,-130 4856,-130 4856,-78 4540,-78"/>
</g>
<g id="clust6" class="cluster">
<title>cluster_APICatalogueModule_exports</title>
<polygon fill="none" stroke="black" points="4748,-214 4748,-266 4948,-266 4948,-214 4748,-214"/>
</g>
<g id="clust15" class="cluster">
<title>cluster_AppModule</title>
<polygon fill="none" stroke="black" stroke-dasharray="1,5" points="5231,-70 5231,-274 5845,-274 5845,-70 5231,-70"/>
</g>
<g id="clust16" class="cluster">
<title>cluster_AppModule_declarations</title>
<polygon fill="none" stroke="black" points="5715,-78 5715,-130 5837,-130 5837,-78 5715,-78"/>
</g>
<g id="clust18" class="cluster">
<title>cluster_AppModule_imports</title>
<polygon fill="none" stroke="black" points="5563,-78 5563,-130 5707,-130 5707,-78 5563,-78"/>
</g>
<g id="clust20" class="cluster">
<title>cluster_AppModule_bootstrap</title>
<polygon fill="none" stroke="black" points="5411,-214 5411,-266 5535,-266 5535,-214 5411,-214"/>
</g>
<g id="clust21" class="cluster">
<title>cluster_AppModule_providers</title>
<polygon fill="none" stroke="black" points="5239,-78 5239,-130 5555,-130 5555,-78 5239,-78"/>
</g>
<g id="clust28" class="cluster">
<title>cluster_AuthenticationModule</title>
<polygon fill="none" stroke="black" stroke-dasharray="1,5" points="5853,-70 5853,-198 6281,-198 6281,-70 5853,-70"/>
</g>
<g id="clust29" class="cluster">
<title>cluster_AuthenticationModule_declarations</title>
<polygon fill="none" stroke="black" points="6073,-78 6073,-130 6273,-130 6273,-78 6073,-78"/>
</g>
<g id="clust32" class="cluster">
<title>cluster_AuthenticationModule_imports</title>
<polygon fill="none" stroke="black" points="5861,-78 5861,-130 6065,-130 6065,-78 5861,-78"/>
</g>
<g id="clust42" class="cluster">
<title>cluster_DashboardModule</title>
<polygon fill="none" stroke="black" stroke-dasharray="1,5" points="6289,-70 6289,-198 6653,-198 6653,-70 6289,-70"/>
</g>
<g id="clust43" class="cluster">
<title>cluster_DashboardModule_declarations</title>
<polygon fill="none" stroke="black" points="6487,-78 6487,-130 6645,-130 6645,-78 6487,-78"/>
</g>
<g id="clust45" class="cluster">
<title>cluster_DashboardModule_imports</title>
<polygon fill="none" stroke="black" points="6297,-78 6297,-130 6479,-130 6479,-78 6297,-78"/>
</g>
<g id="clust61" class="cluster">
<title>cluster_PagesModule</title>
<polygon fill="none" stroke="black" stroke-dasharray="1,5" points="6661,-70 6661,-274 6945,-274 6945,-70 6661,-70"/>
</g>
<g id="clust62" class="cluster">
<title>cluster_PagesModule_declarations</title>
<polygon fill="none" stroke="black" points="6831,-78 6831,-130 6937,-130 6937,-78 6831,-78"/>
</g>
<g id="clust64" class="cluster">
<title>cluster_PagesModule_imports</title>
<polygon fill="none" stroke="black" points="6669,-78 6669,-130 6823,-130 6823,-78 6669,-78"/>
</g>
<g id="clust65" class="cluster">
<title>cluster_PagesModule_exports</title>
<polygon fill="none" stroke="black" points="6691,-214 6691,-266 6801,-266 6801,-214 6691,-214"/>
</g>
<g id="clust74" class="cluster">
<title>cluster_SharedModule</title>
<polygon fill="none" stroke="black" stroke-dasharray="1,5" points="8,-138 8,-206 4524,-206 4524,-138 8,-138"/>
</g>
<g id="clust75" class="cluster">
<title>cluster_SharedModule_declarations</title>
<polygon fill="none" stroke="black" points="2422,-146 2422,-198 4516,-198 4516,-146 2422,-146"/>
</g>
<g id="clust89" class="cluster">
<title>cluster_SharedModule_imports</title>
<polygon fill="none" stroke="black" points="2292,-146 2292,-198 2414,-198 2414,-146 2292,-146"/>
</g>
<g id="clust90" class="cluster">
<title>cluster_SharedModule_exports</title>
<polygon fill="none" stroke="black" points="16,-146 16,-198 2284,-198 2284,-146 16,-146"/>
</g>
<g id="clust99" class="cluster">
<title>cluster_UserModule</title>
<polygon fill="none" stroke="black" stroke-dasharray="1,5" points="6953,-70 6953,-198 7883,-198 7883,-70 6953,-70"/>
</g>
<g id="clust100" class="cluster">
<title>cluster_UserModule_declarations</title>
<polygon fill="none" stroke="black" points="7237,-78 7237,-130 7875,-130 7875,-78 7237,-78"/>
</g>
<g id="clust105" class="cluster">
<title>cluster_UserModule_imports</title>
<polygon fill="none" stroke="black" points="6961,-78 6961,-130 7229,-130 7229,-78 6961,-78"/>
</g>
<!-- ApiCatalogueListComponent -->
<g id="node1" class="node">
<title>ApiCatalogueListComponent</title>
<polygon fill="#ffffb3" stroke="black" points="5207.37,-122 5026.63,-122 5026.63,-86 5207.37,-86 5207.37,-122"/>
<text text-anchor="middle" x="5117" y="-99.8" font-family="Times,serif" font-size="14.00">ApiCatalogueListComponent</text>
</g>
<!-- APICatalogueModule -->
<g id="node3" class="node">
<title>APICatalogueModule</title>
<polygon fill="#8dd3c7" stroke="black" points="4917.36,-190 4914.36,-194 4893.36,-194 4890.36,-190 4778.64,-190 4778.64,-154 4917.36,-154 4917.36,-190"/>
<text text-anchor="middle" x="4848" y="-167.8" font-family="Times,serif" font-size="14.00">APICatalogueModule</text>
</g>
<!-- ApiCatalogueListComponent&#45;&gt;APICatalogueModule -->
<g id="edge1" class="edge">
<title>ApiCatalogueListComponent&#45;&gt;APICatalogueModule</title>
<path fill="none" stroke="black" d="M5117,-122.27C5117,-140.56 5117,-166 5117,-166 5117,-166 4927.62,-166 4927.62,-166"/>
<polygon fill="black" stroke="black" points="4927.62,-162.5 4917.62,-166 4927.62,-169.5 4927.62,-162.5"/>
</g>
<!-- ApiDetailComponent -->
<g id="node2" class="node">
<title>ApiDetailComponent</title>
<polygon fill="#ffffb3" stroke="black" points="5008.04,-122 4871.96,-122 4871.96,-86 5008.04,-86 5008.04,-122"/>
<text text-anchor="middle" x="4940" y="-99.8" font-family="Times,serif" font-size="14.00">ApiDetailComponent</text>
</g>
<!-- ApiDetailComponent&#45;&gt;APICatalogueModule -->
<g id="edge2" class="edge">
<title>ApiDetailComponent&#45;&gt;APICatalogueModule</title>
<path fill="none" stroke="black" d="M4894.58,-122.22C4894.58,-122.22 4894.58,-143.73 4894.58,-143.73"/>
<polygon fill="black" stroke="black" points="4891.08,-143.73 4894.58,-153.73 4898.08,-143.73 4891.08,-143.73"/>
</g>
<!-- ApiCatalogueListComponent  -->
<g id="node6" class="node">
<title>ApiCatalogueListComponent </title>
<polygon fill="#fb8072" stroke="black" points="4940.37,-258 4755.63,-258 4755.63,-222 4940.37,-222 4940.37,-258"/>
<text text-anchor="middle" x="4848" y="-235.8" font-family="Times,serif" font-size="14.00">ApiCatalogueListComponent </text>
</g>
<!-- APICatalogueModule&#45;&gt;ApiCatalogueListComponent  -->
<g id="edge5" class="edge">
<title>APICatalogueModule&#45;&gt;ApiCatalogueListComponent </title>
<path fill="none" stroke="black" stroke-dasharray="5,2" d="M4848,-190.22C4848,-190.22 4848,-211.73 4848,-211.73"/>
<polygon fill="black" stroke="black" points="4844.5,-211.73 4848,-221.73 4851.5,-211.73 4844.5,-211.73"/>
</g>
<!-- APICatalogueRoutingModule -->
<g id="node4" class="node">
<title>APICatalogueRoutingModule</title>
<polygon fill="#8dd3c7" stroke="black" points="4847.98,-122 4844.98,-126 4823.98,-126 4820.98,-122 4664.02,-122 4664.02,-86 4847.98,-86 4847.98,-122"/>
<text text-anchor="middle" x="4756" y="-99.8" font-family="Times,serif" font-size="14.00">APICatalogueRoutingModule</text>
</g>
<!-- APICatalogueRoutingModule&#45;&gt;APICatalogueModule -->
<g id="edge3" class="edge">
<title>APICatalogueRoutingModule&#45;&gt;APICatalogueModule</title>
<path fill="none" stroke="black" d="M4813.28,-122.22C4813.28,-122.22 4813.28,-143.73 4813.28,-143.73"/>
<polygon fill="black" stroke="black" points="4809.78,-143.73 4813.28,-153.73 4816.78,-143.73 4809.78,-143.73"/>
</g>
<!-- SharedModule -->
<g id="node5" class="node">
<title>SharedModule</title>
<polygon fill="#8dd3c7" stroke="black" points="4646.42,-122 4643.42,-126 4622.42,-126 4619.42,-122 4547.58,-122 4547.58,-86 4646.42,-86 4646.42,-122"/>
<text text-anchor="middle" x="4597" y="-99.8" font-family="Times,serif" font-size="14.00">SharedModule</text>
</g>
<!-- SharedModule&#45;&gt;APICatalogueModule -->
<g id="edge4" class="edge">
<title>SharedModule&#45;&gt;APICatalogueModule</title>
<path fill="none" stroke="black" d="M4633.91,-122.27C4633.91,-140.56 4633.91,-166 4633.91,-166 4633.91,-166 4768.49,-166 4768.49,-166"/>
<polygon fill="black" stroke="black" points="4768.49,-169.5 4778.49,-166 4768.49,-162.5 4768.49,-169.5"/>
</g>
<!-- AppModule -->
<g id="node8" class="node">
<title>AppModule</title>
<polygon fill="#8dd3c7" stroke="black" points="5514.66,-190 5511.66,-194 5490.66,-194 5487.66,-190 5431.34,-190 5431.34,-154 5514.66,-154 5514.66,-190"/>
<text text-anchor="middle" x="5473" y="-167.8" font-family="Times,serif" font-size="14.00">AppModule</text>
</g>
<!-- SharedModule&#45;&gt;AppModule -->
<g id="edge8" class="edge">
<title>SharedModule&#45;&gt;AppModule</title>
<path fill="none" stroke="black" d="M4560.09,-122.04C4560.09,-134.56 4560.09,-149 4560.09,-149 4560.09,-149 5459.06,-149 5459.06,-149 5459.06,-149 5459.06,-149.49 5459.06,-149.49"/>
<polygon fill="black" stroke="black" points="5455.56,-143.88 5459.06,-153.88 5462.56,-143.88 5455.56,-143.88"/>
</g>
<!-- AuthenticationModule -->
<g id="node15" class="node">
<title>AuthenticationModule</title>
<polygon fill="#8dd3c7" stroke="black" points="6115.25,-190 6112.25,-194 6091.25,-194 6088.25,-190 5972.75,-190 5972.75,-154 6115.25,-154 6115.25,-190"/>
<text text-anchor="middle" x="6044" y="-167.8" font-family="Times,serif" font-size="14.00">AuthenticationModule</text>
</g>
<!-- SharedModule&#45;&gt;AuthenticationModule -->
<g id="edge15" class="edge">
<title>SharedModule&#45;&gt;AuthenticationModule</title>
<path fill="none" stroke="black" d="M4572.39,-122.13C4572.39,-132.71 4572.39,-144 4572.39,-144 4572.39,-144 6000.73,-144 6000.73,-144 6000.73,-144 6000.73,-144.98 6000.73,-144.98"/>
<polygon fill="black" stroke="black" points="5997.23,-143.79 6000.73,-153.79 6004.23,-143.79 5997.23,-143.79"/>
</g>
<!-- DashboardModule -->
<g id="node18" class="node">
<title>DashboardModule</title>
<polygon fill="#8dd3c7" stroke="black" points="6448.19,-190 6445.19,-194 6424.19,-194 6421.19,-190 6327.81,-190 6327.81,-154 6448.19,-154 6448.19,-190"/>
<text text-anchor="middle" x="6388" y="-167.8" font-family="Times,serif" font-size="14.00">DashboardModule</text>
</g>
<!-- SharedModule&#45;&gt;DashboardModule -->
<g id="edge18" class="edge">
<title>SharedModule&#45;&gt;DashboardModule</title>
<path fill="none" stroke="black" d="M4584.7,-122.19C4584.7,-130.28 4584.7,-138 4584.7,-138 4584.7,-138 6367.97,-138 6367.97,-138 6367.97,-138 6367.97,-143.81 6367.97,-143.81"/>
<polygon fill="black" stroke="black" points="6364.47,-143.81 6367.97,-153.81 6371.47,-143.81 6364.47,-143.81"/>
</g>
<!-- PagesModule -->
<g id="node21" class="node">
<title>PagesModule</title>
<polygon fill="#8dd3c7" stroke="black" points="6792.21,-190 6789.21,-194 6768.21,-194 6765.21,-190 6699.79,-190 6699.79,-154 6792.21,-154 6792.21,-190"/>
<text text-anchor="middle" x="6746" y="-167.8" font-family="Times,serif" font-size="14.00">PagesModule</text>
</g>
<!-- SharedModule&#45;&gt;PagesModule -->
<g id="edge21" class="edge">
<title>SharedModule&#45;&gt;PagesModule</title>
<path fill="none" stroke="black" d="M4597,-122.2C4597,-128.03 4597,-133 4597,-133 4597,-133 6730.63,-133 6730.63,-133 6730.63,-133 6730.63,-143.87 6730.63,-143.87"/>
<polygon fill="black" stroke="black" points="6727.13,-143.87 6730.63,-153.87 6734.13,-143.87 6727.13,-143.87"/>
</g>
<!-- AlertComponent  -->
<g id="node38" class="node">
<title>AlertComponent </title>
<polygon fill="#fb8072" stroke="black" points="315.6,-190 202.4,-190 202.4,-154 315.6,-154 315.6,-190"/>
<text text-anchor="middle" x="259" y="-167.8" font-family="Times,serif" font-size="14.00">AlertComponent </text>
</g>
<!-- SharedModule&#45;&gt;AlertComponent  -->
<g id="edge38" class="edge">
<title>SharedModule&#45;&gt;AlertComponent </title>
<path fill="none" stroke="black" stroke-dasharray="5,2" d="M4547.53,-89C4067.72,-89 259,-89 259,-89 259,-89 259,-143.99 259,-143.99"/>
<polygon fill="black" stroke="black" points="255.5,-143.99 259,-153.99 262.5,-143.99 255.5,-143.99"/>
</g>
<!-- ApiKeyFormComponent  -->
<g id="node39" class="node">
<title>ApiKeyFormComponent </title>
<polygon fill="#fb8072" stroke="black" points="183.99,-190 24.01,-190 24.01,-154 183.99,-154 183.99,-190"/>
<text text-anchor="middle" x="104" y="-167.8" font-family="Times,serif" font-size="14.00">ApiKeyFormComponent </text>
</g>
<!-- SharedModule&#45;&gt;ApiKeyFormComponent  -->
<g id="edge39" class="edge">
<title>SharedModule&#45;&gt;ApiKeyFormComponent </title>
<path fill="none" stroke="black" stroke-dasharray="5,2" d="M4547.69,-88C4059.1,-88 104,-88 104,-88 104,-88 104,-143.77 104,-143.77"/>
<polygon fill="black" stroke="black" points="100.5,-143.77 104,-153.77 107.5,-143.77 100.5,-143.77"/>
</g>
<!-- ButtonComponent  -->
<g id="node40" class="node">
<title>ButtonComponent </title>
<polygon fill="#fb8072" stroke="black" points="2276.45,-190 2153.55,-190 2153.55,-154 2276.45,-154 2276.45,-190"/>
<text text-anchor="middle" x="2215" y="-167.8" font-family="Times,serif" font-size="14.00">ButtonComponent </text>
</g>
<!-- SharedModule&#45;&gt;ButtonComponent  -->
<g id="edge40" class="edge">
<title>SharedModule&#45;&gt;ButtonComponent </title>
<path fill="none" stroke="black" stroke-dasharray="5,2" d="M4547.52,-104C4206.25,-104 2215,-104 2215,-104 2215,-104 2215,-143.78 2215,-143.78"/>
<polygon fill="black" stroke="black" points="2211.5,-143.78 2215,-153.78 2218.5,-143.78 2211.5,-143.78"/>
</g>
<!-- FeaturesComponent  -->
<g id="node41" class="node">
<title>FeaturesComponent </title>
<polygon fill="#fb8072" stroke="black" points="2135.25,-190 2002.75,-190 2002.75,-154 2135.25,-154 2135.25,-190"/>
<text text-anchor="middle" x="2069" y="-167.8" font-family="Times,serif" font-size="14.00">FeaturesComponent </text>
</g>
<!-- SharedModule&#45;&gt;FeaturesComponent  -->
<g id="edge41" class="edge">
<title>SharedModule&#45;&gt;FeaturesComponent </title>
<path fill="none" stroke="black" stroke-dasharray="5,2" d="M4547.64,-103C4194.73,-103 2069,-103 2069,-103 2069,-103 2069,-143.87 2069,-143.87"/>
<polygon fill="black" stroke="black" points="2065.5,-143.87 2069,-153.87 2072.5,-143.87 2065.5,-143.87"/>
</g>
<!-- FooterComponent  -->
<g id="node42" class="node">
<title>FooterComponent </title>
<polygon fill="#fb8072" stroke="black" points="1984.88,-190 1863.12,-190 1863.12,-154 1984.88,-154 1984.88,-190"/>
<text text-anchor="middle" x="1924" y="-167.8" font-family="Times,serif" font-size="14.00">FooterComponent </text>
</g>
<!-- SharedModule&#45;&gt;FooterComponent  -->
<g id="edge42" class="edge">
<title>SharedModule&#45;&gt;FooterComponent </title>
<path fill="none" stroke="black" stroke-dasharray="5,2" d="M4547.66,-101C4181.72,-101 1903.77,-101 1903.77,-101 1903.77,-101 1903.77,-143.72 1903.77,-143.72"/>
<polygon fill="black" stroke="black" points="1900.27,-143.72 1903.77,-153.72 1907.27,-143.72 1900.27,-143.72"/>
</g>
<!-- SharedModule&#45;&gt;FooterComponent  -->
<g id="edge43" class="edge">
<title>SharedModule&#45;&gt;FooterComponent </title>
<path fill="none" stroke="black" stroke-dasharray="5,2" d="M4547.54,-102C4184.39,-102 1944.23,-102 1944.23,-102 1944.23,-102 1944.23,-143.97 1944.23,-143.97"/>
<polygon fill="black" stroke="black" points="1940.73,-143.97 1944.23,-153.97 1947.73,-143.97 1940.73,-143.97"/>
</g>
<!-- HelpCenterComponent  -->
<g id="node43" class="node">
<title>HelpCenterComponent </title>
<polygon fill="#fb8072" stroke="black" points="1845.86,-190 1696.14,-190 1696.14,-154 1845.86,-154 1845.86,-190"/>
<text text-anchor="middle" x="1771" y="-167.8" font-family="Times,serif" font-size="14.00">HelpCenterComponent </text>
</g>
<!-- SharedModule&#45;&gt;HelpCenterComponent  -->
<g id="edge44" class="edge">
<title>SharedModule&#45;&gt;HelpCenterComponent </title>
<path fill="none" stroke="black" stroke-dasharray="5,2" d="M4547.65,-100C4171.41,-100 1771,-100 1771,-100 1771,-100 1771,-143.83 1771,-143.83"/>
<polygon fill="black" stroke="black" points="1767.5,-143.83 1771,-153.83 1774.5,-143.83 1767.5,-143.83"/>
</g>
<!-- HeroComponent  -->
<g id="node44" class="node">
<title>HeroComponent </title>
<polygon fill="#fb8072" stroke="black" points="1678.31,-190 1565.69,-190 1565.69,-154 1678.31,-154 1678.31,-190"/>
<text text-anchor="middle" x="1622" y="-167.8" font-family="Times,serif" font-size="14.00">HeroComponent </text>
</g>
<!-- SharedModule&#45;&gt;HeroComponent  -->
<g id="edge45" class="edge">
<title>SharedModule&#45;&gt;HeroComponent </title>
<path fill="none" stroke="black" stroke-dasharray="5,2" d="M4547.54,-98C4159.7,-98 1622,-98 1622,-98 1622,-98 1622,-143.71 1622,-143.71"/>
<polygon fill="black" stroke="black" points="1618.5,-143.71 1622,-153.71 1625.5,-143.71 1618.5,-143.71"/>
</g>
<!-- MaterialModule  -->
<g id="node45" class="node">
<title>MaterialModule </title>
<polygon fill="#fb8072" stroke="black" points="1547.47,-190 1436.53,-190 1436.53,-154 1547.47,-154 1547.47,-190"/>
<text text-anchor="middle" x="1492" y="-167.8" font-family="Times,serif" font-size="14.00">MaterialModule </text>
</g>
<!-- SharedModule&#45;&gt;MaterialModule  -->
<g id="edge46" class="edge">
<title>SharedModule&#45;&gt;MaterialModule </title>
<path fill="none" stroke="black" stroke-dasharray="5,2" d="M4547.6,-97C4150.4,-97 1492,-97 1492,-97 1492,-97 1492,-143.84 1492,-143.84"/>
<polygon fill="black" stroke="black" points="1488.5,-143.84 1492,-153.84 1495.5,-143.84 1488.5,-143.84"/>
</g>
<!-- NavbarComponent  -->
<g id="node46" class="node">
<title>NavbarComponent </title>
<polygon fill="#fb8072" stroke="black" points="1419.03,-190 1292.97,-190 1292.97,-154 1419.03,-154 1419.03,-190"/>
<text text-anchor="middle" x="1356" y="-167.8" font-family="Times,serif" font-size="14.00">NavbarComponent </text>
</g>
<!-- SharedModule&#45;&gt;NavbarComponent  -->
<g id="edge47" class="edge">
<title>SharedModule&#45;&gt;NavbarComponent </title>
<path fill="none" stroke="black" stroke-dasharray="5,2" d="M4547.71,-96C4141.1,-96 1356,-96 1356,-96 1356,-96 1356,-143.99 1356,-143.99"/>
<polygon fill="black" stroke="black" points="1352.5,-143.99 1356,-153.99 1359.5,-143.99 1352.5,-143.99"/>
</g>
<!-- SearchApiComponent  -->
<g id="node47" class="node">
<title>SearchApiComponent </title>
<polygon fill="#fb8072" stroke="black" points="1274.92,-190 1131.08,-190 1131.08,-154 1274.92,-154 1274.92,-190"/>
<text text-anchor="middle" x="1203" y="-167.8" font-family="Times,serif" font-size="14.00">SearchApiComponent </text>
</g>
<!-- SharedModule&#45;&gt;SearchApiComponent  -->
<g id="edge48" class="edge">
<title>SharedModule&#45;&gt;SearchApiComponent </title>
<path fill="none" stroke="black" stroke-dasharray="5,2" d="M4547.71,-95C4130.34,-95 1203,-95 1203,-95 1203,-95 1203,-143.75 1203,-143.75"/>
<polygon fill="black" stroke="black" points="1199.5,-143.75 1203,-153.75 1206.5,-143.75 1199.5,-143.75"/>
</g>
<!-- SidebarComponent  -->
<g id="node48" class="node">
<title>SidebarComponent </title>
<polygon fill="#fb8072" stroke="black" points="1112.6,-190 985.4,-190 985.4,-154 1112.6,-154 1112.6,-190"/>
<text text-anchor="middle" x="1049" y="-167.8" font-family="Times,serif" font-size="14.00">SidebarComponent </text>
</g>
<!-- SharedModule&#45;&gt;SidebarComponent  -->
<g id="edge49" class="edge">
<title>SharedModule&#45;&gt;SidebarComponent </title>
<path fill="none" stroke="black" stroke-dasharray="5,2" d="M4547.52,-94C4118.83,-94 1049,-94 1049,-94 1049,-94 1049,-143.91 1049,-143.91"/>
<polygon fill="black" stroke="black" points="1045.5,-143.91 1049,-153.91 1052.5,-143.91 1045.5,-143.91"/>
</g>
<!-- TableSubscribedApiCostComponent  -->
<g id="node49" class="node">
<title>TableSubscribedApiCostComponent </title>
<polygon fill="#fb8072" stroke="black" points="966.58,-190 741.42,-190 741.42,-154 966.58,-154 966.58,-190"/>
<text text-anchor="middle" x="854" y="-167.8" font-family="Times,serif" font-size="14.00">TableSubscribedApiCostComponent </text>
</g>
<!-- SharedModule&#45;&gt;TableSubscribedApiCostComponent  -->
<g id="edge50" class="edge">
<title>SharedModule&#45;&gt;TableSubscribedApiCostComponent </title>
<path fill="none" stroke="black" stroke-dasharray="5,2" d="M4547.61,-92C4106.16,-92 854,-92 854,-92 854,-92 854,-143.85 854,-143.85"/>
<polygon fill="black" stroke="black" points="850.5,-143.85 854,-153.85 857.5,-143.85 850.5,-143.85"/>
</g>
<!-- TableSubscribedApisComponent  -->
<g id="node50" class="node">
<title>TableSubscribedApisComponent </title>
<polygon fill="#fb8072" stroke="black" points="723.85,-190 518.15,-190 518.15,-154 723.85,-154 723.85,-190"/>
<text text-anchor="middle" x="621" y="-167.8" font-family="Times,serif" font-size="14.00">TableSubscribedApisComponent </text>
</g>
<!-- SharedModule&#45;&gt;TableSubscribedApisComponent  -->
<g id="edge51" class="edge">
<title>SharedModule&#45;&gt;TableSubscribedApisComponent </title>
<path fill="none" stroke="black" stroke-dasharray="5,2" d="M4547.45,-91C4090.1,-91 621,-91 621,-91 621,-91 621,-143.62 621,-143.62"/>
<polygon fill="black" stroke="black" points="617.5,-143.62 621,-153.62 624.5,-143.62 617.5,-143.62"/>
</g>
<!-- UserApiUsageComponent  -->
<g id="node51" class="node">
<title>UserApiUsageComponent </title>
<polygon fill="#fb8072" stroke="black" points="500.74,-190 333.26,-190 333.26,-154 500.74,-154 500.74,-190"/>
<text text-anchor="middle" x="417" y="-167.8" font-family="Times,serif" font-size="14.00">UserApiUsageComponent </text>
</g>
<!-- SharedModule&#45;&gt;UserApiUsageComponent  -->
<g id="edge52" class="edge">
<title>SharedModule&#45;&gt;UserApiUsageComponent </title>
<path fill="none" stroke="black" stroke-dasharray="5,2" d="M4547.51,-90C4077.45,-90 417,-90 417,-90 417,-90 417,-143.8 417,-143.8"/>
<polygon fill="black" stroke="black" points="413.5,-143.8 417,-153.8 420.5,-143.8 413.5,-143.8"/>
</g>
<!-- UserModule -->
<g id="node56" class="node">
<title>UserModule</title>
<polygon fill="#8dd3c7" stroke="black" points="7457.98,-190 7454.98,-194 7433.98,-194 7430.98,-190 7372.02,-190 7372.02,-154 7457.98,-154 7457.98,-190"/>
<text text-anchor="middle" x="7415" y="-167.8" font-family="Times,serif" font-size="14.00">UserModule</text>
</g>
<!-- SharedModule&#45;&gt;UserModule -->
<g id="edge57" class="edge">
<title>SharedModule&#45;&gt;UserModule</title>
<path fill="none" stroke="black" d="M4609.3,-122.19C4609.3,-125.54 4609.3,-128 4609.3,-128 4609.3,-128 7382.26,-128 7382.26,-128 7382.26,-128 7382.26,-143.85 7382.26,-143.85"/>
<polygon fill="black" stroke="black" points="7378.76,-143.85 7382.26,-153.85 7385.76,-143.85 7378.76,-143.85"/>
</g>
<!-- AppComponent -->
<g id="node7" class="node">
<title>AppComponent</title>
<polygon fill="#ffffb3" stroke="black" points="5828.94,-122 5723.06,-122 5723.06,-86 5828.94,-86 5828.94,-122"/>
<text text-anchor="middle" x="5776" y="-99.8" font-family="Times,serif" font-size="14.00">AppComponent</text>
</g>
<!-- AppComponent&#45;&gt;AppModule -->
<g id="edge6" class="edge">
<title>AppComponent&#45;&gt;AppModule</title>
<path fill="none" stroke="black" d="M5776,-122.29C5776,-144.21 5776,-178 5776,-178 5776,-178 5524.81,-178 5524.81,-178"/>
<polygon fill="black" stroke="black" points="5524.81,-174.5 5514.81,-178 5524.81,-181.5 5524.81,-174.5"/>
</g>
<!-- AppComponent  -->
<g id="node10" class="node">
<title>AppComponent </title>
<polygon fill="#80b1d3" stroke="black" points="5527.44,-258 5418.56,-258 5418.56,-222 5527.44,-222 5527.44,-258"/>
<text text-anchor="middle" x="5473" y="-235.8" font-family="Times,serif" font-size="14.00">AppComponent </text>
</g>
<!-- AppModule&#45;&gt;AppComponent  -->
<g id="edge9" class="edge">
<title>AppModule&#45;&gt;AppComponent </title>
<path fill="none" stroke="black" stroke-dasharray="1,5" d="M5473,-190.22C5473,-190.22 5473,-211.73 5473,-211.73"/>
<polygon fill="black" stroke="black" points="5469.5,-211.73 5473,-221.73 5476.5,-211.73 5469.5,-211.73"/>
</g>
<!-- AppRoutingModule -->
<g id="node9" class="node">
<title>AppRoutingModule</title>
<polygon fill="#8dd3c7" stroke="black" points="5699.27,-122 5696.27,-126 5675.27,-126 5672.27,-122 5570.73,-122 5570.73,-86 5699.27,-86 5699.27,-122"/>
<text text-anchor="middle" x="5635" y="-99.8" font-family="Times,serif" font-size="14.00">AppRoutingModule</text>
</g>
<!-- AppRoutingModule&#45;&gt;AppModule -->
<g id="edge7" class="edge">
<title>AppRoutingModule&#45;&gt;AppModule</title>
<path fill="none" stroke="black" d="M5635,-122.27C5635,-140.56 5635,-166 5635,-166 5635,-166 5524.72,-166 5524.72,-166"/>
<polygon fill="black" stroke="black" points="5524.72,-162.5 5514.72,-166 5524.72,-169.5 5524.72,-162.5"/>
</g>
<!-- ErrorInterceptor -->
<g id="node11" class="node">
<title>ErrorInterceptor</title>
<ellipse fill="#fdb462" stroke="black" cx="5473" cy="-104" rx="73.53" ry="18"/>
<text text-anchor="middle" x="5473" y="-99.8" font-family="Times,serif" font-size="14.00">ErrorInterceptor</text>
</g>
<!-- ErrorInterceptor&#45;&gt;AppModule -->
<g id="edge10" class="edge">
<title>ErrorInterceptor&#45;&gt;AppModule</title>
<path fill="none" stroke="black" d="M5486.94,-121.87C5486.94,-121.87 5486.94,-143.54 5486.94,-143.54"/>
<polygon fill="black" stroke="black" points="5483.44,-143.54 5486.94,-153.54 5490.44,-143.54 5483.44,-143.54"/>
</g>
<!-- JwtInterceptor -->
<g id="node12" class="node">
<title>JwtInterceptor</title>
<ellipse fill="#fdb462" stroke="black" cx="5314" cy="-104" rx="66.61" ry="18"/>
<text text-anchor="middle" x="5314" y="-99.8" font-family="Times,serif" font-size="14.00">JwtInterceptor</text>
</g>
<!-- JwtInterceptor&#45;&gt;AppModule -->
<g id="edge11" class="edge">
<title>JwtInterceptor&#45;&gt;AppModule</title>
<path fill="none" stroke="black" d="M5314,-122.29C5314,-144.21 5314,-178 5314,-178 5314,-178 5421.22,-178 5421.22,-178"/>
<polygon fill="black" stroke="black" points="5421.22,-181.5 5431.22,-178 5421.22,-174.5 5421.22,-181.5"/>
</g>
<!-- LoginPage -->
<g id="node13" class="node">
<title>LoginPage</title>
<polygon fill="#ffffb3" stroke="black" points="6265.16,-122 6188.84,-122 6188.84,-86 6265.16,-86 6265.16,-122"/>
<text text-anchor="middle" x="6227" y="-99.8" font-family="Times,serif" font-size="14.00">LoginPage</text>
</g>
<!-- LoginPage&#45;&gt;AuthenticationModule -->
<g id="edge12" class="edge">
<title>LoginPage&#45;&gt;AuthenticationModule</title>
<path fill="none" stroke="black" d="M6227,-122.22C6227,-142.37 6227,-172 6227,-172 6227,-172 6125.28,-172 6125.28,-172"/>
<polygon fill="black" stroke="black" points="6125.28,-168.5 6115.28,-172 6125.28,-175.5 6125.28,-168.5"/>
</g>
<!-- RegisterPage -->
<g id="node14" class="node">
<title>RegisterPage</title>
<polygon fill="#ffffb3" stroke="black" points="6170.86,-122 6081.14,-122 6081.14,-86 6170.86,-86 6170.86,-122"/>
<text text-anchor="middle" x="6126" y="-99.8" font-family="Times,serif" font-size="14.00">RegisterPage</text>
</g>
<!-- RegisterPage&#45;&gt;AuthenticationModule -->
<g id="edge13" class="edge">
<title>RegisterPage&#45;&gt;AuthenticationModule</title>
<path fill="none" stroke="black" d="M6098.22,-122.22C6098.22,-122.22 6098.22,-143.73 6098.22,-143.73"/>
<polygon fill="black" stroke="black" points="6094.72,-143.73 6098.22,-153.73 6101.72,-143.73 6094.72,-143.73"/>
</g>
<!-- AuthenticationRoutingModule -->
<g id="node16" class="node">
<title>AuthenticationRoutingModule</title>
<polygon fill="#8dd3c7" stroke="black" points="6056.87,-122 6053.87,-126 6032.87,-126 6029.87,-122 5869.13,-122 5869.13,-86 6056.87,-86 6056.87,-122"/>
<text text-anchor="middle" x="5963" y="-99.8" font-family="Times,serif" font-size="14.00">AuthenticationRoutingModule</text>
</g>
<!-- AuthenticationRoutingModule&#45;&gt;AuthenticationModule -->
<g id="edge14" class="edge">
<title>AuthenticationRoutingModule&#45;&gt;AuthenticationModule</title>
<path fill="none" stroke="black" d="M6028.83,-122.22C6028.83,-122.22 6028.83,-143.73 6028.83,-143.73"/>
<polygon fill="black" stroke="black" points="6025.33,-143.73 6028.83,-153.73 6032.33,-143.73 6025.33,-143.73"/>
</g>
<!-- DashboardComponent -->
<g id="node17" class="node">
<title>DashboardComponent</title>
<polygon fill="#ffffb3" stroke="black" points="6636.97,-122 6495.03,-122 6495.03,-86 6636.97,-86 6636.97,-122"/>
<text text-anchor="middle" x="6566" y="-99.8" font-family="Times,serif" font-size="14.00">DashboardComponent</text>
</g>
<!-- DashboardComponent&#45;&gt;DashboardModule -->
<g id="edge16" class="edge">
<title>DashboardComponent&#45;&gt;DashboardModule</title>
<path fill="none" stroke="black" d="M6566,-122.22C6566,-142.37 6566,-172 6566,-172 6566,-172 6458.26,-172 6458.26,-172"/>
<polygon fill="black" stroke="black" points="6458.26,-168.5 6448.26,-172 6458.26,-175.5 6458.26,-168.5"/>
</g>
<!-- DashboardRoutingModule -->
<g id="node19" class="node">
<title>DashboardRoutingModule</title>
<polygon fill="#8dd3c7" stroke="black" points="6470.81,-122 6467.81,-126 6446.81,-126 6443.81,-122 6305.19,-122 6305.19,-86 6470.81,-86 6470.81,-122"/>
<text text-anchor="middle" x="6388" y="-99.8" font-family="Times,serif" font-size="14.00">DashboardRoutingModule</text>
</g>
<!-- DashboardRoutingModule&#45;&gt;DashboardModule -->
<g id="edge17" class="edge">
<title>DashboardRoutingModule&#45;&gt;DashboardModule</title>
<path fill="none" stroke="black" d="M6408.03,-122.22C6408.03,-122.22 6408.03,-143.73 6408.03,-143.73"/>
<polygon fill="black" stroke="black" points="6404.53,-143.73 6408.03,-153.73 6411.53,-143.73 6404.53,-143.73"/>
</g>
<!-- LandingPage -->
<g id="node20" class="node">
<title>LandingPage</title>
<polygon fill="#ffffb3" stroke="black" points="6928.87,-122 6839.13,-122 6839.13,-86 6928.87,-86 6928.87,-122"/>
<text text-anchor="middle" x="6884" y="-99.8" font-family="Times,serif" font-size="14.00">LandingPage</text>
</g>
<!-- LandingPage&#45;&gt;PagesModule -->
<g id="edge19" class="edge">
<title>LandingPage&#45;&gt;PagesModule</title>
<path fill="none" stroke="black" d="M6884,-122.29C6884,-144.21 6884,-178 6884,-178 6884,-178 6802.34,-178 6802.34,-178"/>
<polygon fill="black" stroke="black" points="6802.34,-174.5 6792.34,-178 6802.34,-181.5 6802.34,-174.5"/>
</g>
<!-- LandingPage  -->
<g id="node23" class="node">
<title>LandingPage </title>
<polygon fill="#fb8072" stroke="black" points="6792.87,-258 6699.13,-258 6699.13,-222 6792.87,-222 6792.87,-258"/>
<text text-anchor="middle" x="6746" y="-235.8" font-family="Times,serif" font-size="14.00">LandingPage </text>
</g>
<!-- PagesModule&#45;&gt;LandingPage  -->
<g id="edge22" class="edge">
<title>PagesModule&#45;&gt;LandingPage </title>
<path fill="none" stroke="black" stroke-dasharray="5,2" d="M6746,-190.22C6746,-190.22 6746,-211.73 6746,-211.73"/>
<polygon fill="black" stroke="black" points="6742.5,-211.73 6746,-221.73 6749.5,-211.73 6742.5,-211.73"/>
</g>
<!-- PagesRoutingModule -->
<g id="node22" class="node">
<title>PagesRoutingModule</title>
<polygon fill="#8dd3c7" stroke="black" points="6814.82,-122 6811.82,-126 6790.82,-126 6787.82,-122 6677.18,-122 6677.18,-86 6814.82,-86 6814.82,-122"/>
<text text-anchor="middle" x="6746" y="-99.8" font-family="Times,serif" font-size="14.00">PagesRoutingModule</text>
</g>
<!-- PagesRoutingModule&#45;&gt;PagesModule -->
<g id="edge20" class="edge">
<title>PagesRoutingModule&#45;&gt;PagesModule</title>
<path fill="none" stroke="black" d="M6761.37,-122.22C6761.37,-122.22 6761.37,-143.73 6761.37,-143.73"/>
<polygon fill="black" stroke="black" points="6757.87,-143.73 6761.37,-153.73 6764.87,-143.73 6757.87,-143.73"/>
</g>
<!-- AlertComponent -->
<g id="node24" class="node">
<title>AlertComponent</title>
<polygon fill="#ffffb3" stroke="black" points="3866.1,-190 3755.9,-190 3755.9,-154 3866.1,-154 3866.1,-190"/>
<text text-anchor="middle" x="3811" y="-167.8" font-family="Times,serif" font-size="14.00">AlertComponent</text>
</g>
<!-- AlertComponent&#45;&gt;SharedModule -->
<g id="edge23" class="edge">
<title>AlertComponent&#45;&gt;SharedModule</title>
<path fill="none" stroke="black" d="M3811,-153.76C3811,-138.43 3811,-119 3811,-119 3811,-119 4537.53,-119 4537.53,-119"/>
<polygon fill="black" stroke="black" points="4537.53,-122.5 4547.53,-119 4537.53,-115.5 4537.53,-122.5"/>
</g>
<!-- ApiKeyFormComponent -->
<g id="node25" class="node">
<title>ApiKeyFormComponent</title>
<polygon fill="#ffffb3" stroke="black" points="3737.98,-190 3582.02,-190 3582.02,-154 3737.98,-154 3737.98,-190"/>
<text text-anchor="middle" x="3660" y="-167.8" font-family="Times,serif" font-size="14.00">ApiKeyFormComponent</text>
</g>
<!-- ApiKeyFormComponent&#45;&gt;SharedModule -->
<g id="edge24" class="edge">
<title>ApiKeyFormComponent&#45;&gt;SharedModule</title>
<path fill="none" stroke="black" d="M3660,-153.72C3660,-138.05 3660,-118 3660,-118 3660,-118 4537.61,-118 4537.61,-118"/>
<polygon fill="black" stroke="black" points="4537.61,-121.5 4547.61,-118 4537.61,-114.5 4537.61,-121.5"/>
</g>
<!-- ButtonComponent -->
<g id="node26" class="node">
<title>ButtonComponent</title>
<polygon fill="#ffffb3" stroke="black" points="3563.95,-190 3444.05,-190 3444.05,-154 3563.95,-154 3563.95,-190"/>
<text text-anchor="middle" x="3504" y="-167.8" font-family="Times,serif" font-size="14.00">ButtonComponent</text>
</g>
<!-- ButtonComponent&#45;&gt;SharedModule -->
<g id="edge25" class="edge">
<title>ButtonComponent&#45;&gt;SharedModule</title>
<path fill="none" stroke="black" d="M3504,-153.97C3504,-137.6 3504,-116 3504,-116 3504,-116 4537.55,-116 4537.55,-116"/>
<polygon fill="black" stroke="black" points="4537.55,-119.5 4547.55,-116 4537.55,-112.5 4537.55,-119.5"/>
</g>
<!-- FeaturesComponent -->
<g id="node27" class="node">
<title>FeaturesComponent</title>
<polygon fill="#ffffb3" stroke="black" points="3426.25,-190 3297.75,-190 3297.75,-154 3426.25,-154 3426.25,-190"/>
<text text-anchor="middle" x="3362" y="-167.8" font-family="Times,serif" font-size="14.00">FeaturesComponent</text>
</g>
<!-- FeaturesComponent&#45;&gt;SharedModule -->
<g id="edge26" class="edge">
<title>FeaturesComponent&#45;&gt;SharedModule</title>
<path fill="none" stroke="black" d="M3362,-153.96C3362,-137.27 3362,-115 3362,-115 3362,-115 4537.44,-115 4537.44,-115"/>
<polygon fill="black" stroke="black" points="4537.44,-118.5 4547.44,-115 4537.44,-111.5 4537.44,-118.5"/>
</g>
<!-- FooterComponent -->
<g id="node28" class="node">
<title>FooterComponent</title>
<polygon fill="#ffffb3" stroke="black" points="3279.88,-190 3162.12,-190 3162.12,-154 3279.88,-154 3279.88,-190"/>
<text text-anchor="middle" x="3221" y="-167.8" font-family="Times,serif" font-size="14.00">FooterComponent</text>
</g>
<!-- FooterComponent&#45;&gt;SharedModule -->
<g id="edge27" class="edge">
<title>FooterComponent&#45;&gt;SharedModule</title>
<path fill="none" stroke="black" d="M3201.35,-153.98C3201.35,-136.63 3201.35,-113 3201.35,-113 3201.35,-113 4537.74,-113 4537.74,-113"/>
<polygon fill="black" stroke="black" points="4537.74,-116.5 4547.74,-113 4537.74,-109.5 4537.74,-116.5"/>
</g>
<!-- FooterComponent&#45;&gt;SharedModule -->
<g id="edge28" class="edge">
<title>FooterComponent&#45;&gt;SharedModule</title>
<path fill="none" stroke="black" d="M3240.65,-153.97C3240.65,-136.94 3240.65,-114 3240.65,-114 3240.65,-114 4537.52,-114 4537.52,-114"/>
<polygon fill="black" stroke="black" points="4537.52,-117.5 4547.52,-114 4537.52,-110.5 4537.52,-117.5"/>
</g>
<!-- HelpCenterComponent -->
<g id="node29" class="node">
<title>HelpCenterComponent</title>
<polygon fill="#ffffb3" stroke="black" points="3143.86,-190 2998.14,-190 2998.14,-154 3143.86,-154 3143.86,-190"/>
<text text-anchor="middle" x="3071" y="-167.8" font-family="Times,serif" font-size="14.00">HelpCenterComponent</text>
</g>
<!-- HelpCenterComponent&#45;&gt;SharedModule -->
<g id="edge29" class="edge">
<title>HelpCenterComponent&#45;&gt;SharedModule</title>
<path fill="none" stroke="black" d="M3071,-154C3071,-136.32 3071,-112 3071,-112 3071,-112 4537.53,-112 4537.53,-112"/>
<polygon fill="black" stroke="black" points="4537.53,-115.5 4547.53,-112 4537.53,-108.5 4537.53,-115.5"/>
</g>
<!-- HeroComponent -->
<g id="node30" class="node">
<title>HeroComponent</title>
<polygon fill="#ffffb3" stroke="black" points="2979.81,-190 2870.19,-190 2870.19,-154 2979.81,-154 2979.81,-190"/>
<text text-anchor="middle" x="2925" y="-167.8" font-family="Times,serif" font-size="14.00">HeroComponent</text>
</g>
<!-- HeroComponent&#45;&gt;SharedModule -->
<g id="edge30" class="edge">
<title>HeroComponent&#45;&gt;SharedModule</title>
<path fill="none" stroke="black" d="M2925,-153.73C2925,-135.44 2925,-110 2925,-110 2925,-110 4537.41,-110 4537.41,-110"/>
<polygon fill="black" stroke="black" points="4537.41,-113.5 4547.41,-110 4537.41,-106.5 4537.41,-113.5"/>
</g>
<!-- NavbarComponent -->
<g id="node31" class="node">
<title>NavbarComponent</title>
<polygon fill="#ffffb3" stroke="black" points="2852.03,-190 2729.97,-190 2729.97,-154 2852.03,-154 2852.03,-190"/>
<text text-anchor="middle" x="2791" y="-167.8" font-family="Times,serif" font-size="14.00">NavbarComponent</text>
</g>
<!-- NavbarComponent&#45;&gt;SharedModule -->
<g id="edge31" class="edge">
<title>NavbarComponent&#45;&gt;SharedModule</title>
<path fill="none" stroke="black" d="M2791,-153.78C2791,-135.17 2791,-109 2791,-109 2791,-109 4537.76,-109 4537.76,-109"/>
<polygon fill="black" stroke="black" points="4537.76,-112.5 4547.76,-109 4537.76,-105.5 4537.76,-112.5"/>
</g>
<!-- SearchApiComponent -->
<g id="node32" class="node">
<title>SearchApiComponent</title>
<polygon fill="#ffffb3" stroke="black" points="2712.42,-190 2571.58,-190 2571.58,-154 2712.42,-154 2712.42,-190"/>
<text text-anchor="middle" x="2642" y="-167.8" font-family="Times,serif" font-size="14.00">SearchApiComponent</text>
</g>
<!-- SearchApiComponent&#45;&gt;SharedModule -->
<g id="edge32" class="edge">
<title>SearchApiComponent&#45;&gt;SharedModule</title>
<path fill="none" stroke="black" d="M2642,-153.83C2642,-134.91 2642,-108 2642,-108 2642,-108 4537.7,-108 4537.7,-108"/>
<polygon fill="black" stroke="black" points="4537.7,-111.5 4547.7,-108 4537.7,-104.5 4537.7,-111.5"/>
</g>
<!-- SidebarComponent -->
<g id="node33" class="node">
<title>SidebarComponent</title>
<polygon fill="#ffffb3" stroke="black" points="2554.1,-190 2429.9,-190 2429.9,-154 2554.1,-154 2554.1,-190"/>
<text text-anchor="middle" x="2492" y="-167.8" font-family="Times,serif" font-size="14.00">SidebarComponent</text>
</g>
<!-- SidebarComponent&#45;&gt;SharedModule -->
<g id="edge33" class="edge">
<title>SidebarComponent&#45;&gt;SharedModule</title>
<path fill="none" stroke="black" d="M2492,-153.89C2492,-134.66 2492,-107 2492,-107 2492,-107 4537.56,-107 4537.56,-107"/>
<polygon fill="black" stroke="black" points="4537.56,-110.5 4547.56,-107 4537.56,-103.5 4537.56,-110.5"/>
</g>
<!-- TableSubscribedApiCostComponent -->
<g id="node34" class="node">
<title>TableSubscribedApiCostComponent</title>
<polygon fill="#ffffb3" stroke="black" points="4508.08,-190 4285.92,-190 4285.92,-154 4508.08,-154 4508.08,-190"/>
<text text-anchor="middle" x="4397" y="-167.8" font-family="Times,serif" font-size="14.00">TableSubscribedApiCostComponent</text>
</g>
<!-- TableSubscribedApiCostComponent&#45;&gt;SharedModule -->
<g id="edge34" class="edge">
<title>TableSubscribedApiCostComponent&#45;&gt;SharedModule</title>
<path fill="none" stroke="black" d="M4508.32,-178C4564.79,-178 4621.61,-178 4621.61,-178 4621.61,-178 4621.61,-132.29 4621.61,-132.29"/>
<polygon fill="black" stroke="black" points="4625.11,-132.29 4621.61,-122.29 4618.11,-132.29 4625.11,-132.29"/>
</g>
<!-- TableSubscribedApisComponent -->
<g id="node35" class="node">
<title>TableSubscribedApisComponent</title>
<polygon fill="#ffffb3" stroke="black" points="4267.85,-190 4066.15,-190 4066.15,-154 4267.85,-154 4267.85,-190"/>
<text text-anchor="middle" x="4167" y="-167.8" font-family="Times,serif" font-size="14.00">TableSubscribedApisComponent</text>
</g>
<!-- TableSubscribedApisComponent&#45;&gt;SharedModule -->
<g id="edge35" class="edge">
<title>TableSubscribedApisComponent&#45;&gt;SharedModule</title>
<path fill="none" stroke="black" d="M4167,-153.88C4167,-139.22 4167,-121 4167,-121 4167,-121 4537.67,-121 4537.67,-121"/>
<polygon fill="black" stroke="black" points="4537.67,-124.5 4547.67,-121 4537.67,-117.5 4537.67,-124.5"/>
</g>
<!-- UserApiUsageComponent -->
<g id="node36" class="node">
<title>UserApiUsageComponent</title>
<polygon fill="#ffffb3" stroke="black" points="4047.74,-190 3884.26,-190 3884.26,-154 4047.74,-154 4047.74,-190"/>
<text text-anchor="middle" x="3966" y="-167.8" font-family="Times,serif" font-size="14.00">UserApiUsageComponent</text>
</g>
<!-- UserApiUsageComponent&#45;&gt;SharedModule -->
<g id="edge36" class="edge">
<title>UserApiUsageComponent&#45;&gt;SharedModule</title>
<path fill="none" stroke="black" d="M3966,-153.81C3966,-138.82 3966,-120 3966,-120 3966,-120 4537.75,-120 4537.75,-120"/>
<polygon fill="black" stroke="black" points="4537.75,-123.5 4547.75,-120 4537.75,-116.5 4537.75,-123.5"/>
</g>
<!-- MaterialModule -->
<g id="node37" class="node">
<title>MaterialModule</title>
<polygon fill="#8dd3c7" stroke="black" points="2406.47,-190 2403.47,-194 2382.47,-194 2379.47,-190 2299.53,-190 2299.53,-154 2406.47,-154 2406.47,-190"/>
<text text-anchor="middle" x="2353" y="-167.8" font-family="Times,serif" font-size="14.00">MaterialModule</text>
</g>
<!-- MaterialModule&#45;&gt;SharedModule -->
<g id="edge37" class="edge">
<title>MaterialModule&#45;&gt;SharedModule</title>
<path fill="none" stroke="black" d="M2353,-153.97C2353,-134.42 2353,-106 2353,-106 2353,-106 4537.78,-106 4537.78,-106"/>
<polygon fill="black" stroke="black" points="4537.78,-109.5 4547.78,-106 4537.78,-102.5 4537.78,-109.5"/>
</g>
<!-- BillingComponent -->
<g id="node52" class="node">
<title>BillingComponent</title>
<polygon fill="#ffffb3" stroke="black" points="7867.23,-122 7746.77,-122 7746.77,-86 7867.23,-86 7867.23,-122"/>
<text text-anchor="middle" x="7807" y="-99.8" font-family="Times,serif" font-size="14.00">BillingComponent</text>
</g>
<!-- BillingComponent&#45;&gt;UserModule -->
<g id="edge53" class="edge">
<title>BillingComponent&#45;&gt;UserModule</title>
<path fill="none" stroke="black" d="M7807,-122.29C7807,-144.21 7807,-178 7807,-178 7807,-178 7468.07,-178 7468.07,-178"/>
<polygon fill="black" stroke="black" points="7468.07,-174.5 7458.07,-178 7468.07,-181.5 7468.07,-174.5"/>
</g>
<!-- ProfileComponent -->
<g id="node53" class="node">
<title>ProfileComponent</title>
<polygon fill="#ffffb3" stroke="black" points="7728.93,-122 7609.07,-122 7609.07,-86 7728.93,-86 7728.93,-122"/>
<text text-anchor="middle" x="7669" y="-99.8" font-family="Times,serif" font-size="14.00">ProfileComponent</text>
</g>
<!-- ProfileComponent&#45;&gt;UserModule -->
<g id="edge54" class="edge">
<title>ProfileComponent&#45;&gt;UserModule</title>
<path fill="none" stroke="black" d="M7669,-122.27C7669,-140.56 7669,-166 7669,-166 7669,-166 7468.09,-166 7468.09,-166"/>
<polygon fill="black" stroke="black" points="7468.09,-162.5 7458.09,-166 7468.09,-169.5 7468.09,-162.5"/>
</g>
<!-- SubscribedApisComponent -->
<g id="node54" class="node">
<title>SubscribedApisComponent</title>
<polygon fill="#ffffb3" stroke="black" points="7590.98,-122 7421.02,-122 7421.02,-86 7590.98,-86 7590.98,-122"/>
<text text-anchor="middle" x="7506" y="-99.8" font-family="Times,serif" font-size="14.00">SubscribedApisComponent</text>
</g>
<!-- SubscribedApisComponent&#45;&gt;UserModule -->
<g id="edge55" class="edge">
<title>SubscribedApisComponent&#45;&gt;UserModule</title>
<path fill="none" stroke="black" d="M7439.5,-122.22C7439.5,-122.22 7439.5,-143.73 7439.5,-143.73"/>
<polygon fill="black" stroke="black" points="7436,-143.73 7439.5,-153.73 7443,-143.73 7436,-143.73"/>
</g>
<!-- UserApiKeysComponent -->
<g id="node55" class="node">
<title>UserApiKeysComponent</title>
<polygon fill="#ffffb3" stroke="black" points="7402.52,-122 7245.48,-122 7245.48,-86 7402.52,-86 7402.52,-122"/>
<text text-anchor="middle" x="7324" y="-99.8" font-family="Times,serif" font-size="14.00">UserApiKeysComponent</text>
</g>
<!-- UserApiKeysComponent&#45;&gt;UserModule -->
<g id="edge56" class="edge">
<title>UserApiKeysComponent&#45;&gt;UserModule</title>
<path fill="none" stroke="black" d="M7392.51,-122.22C7392.51,-122.22 7392.51,-143.73 7392.51,-143.73"/>
<polygon fill="black" stroke="black" points="7389.01,-143.73 7392.51,-153.73 7396.01,-143.73 7389.01,-143.73"/>
</g>
<!-- UserAccountManagementRoutingModule -->
<g id="node57" class="node">
<title>UserAccountManagementRoutingModule</title>
<polygon fill="#8dd3c7" stroke="black" points="7220.6,-122 7217.6,-126 7196.6,-126 7193.6,-122 6969.4,-122 6969.4,-86 7220.6,-86 7220.6,-122"/>
<text text-anchor="middle" x="7095" y="-99.8" font-family="Times,serif" font-size="14.00">UserAccountManagementRoutingModule</text>
</g>
<!-- UserAccountManagementRoutingModule&#45;&gt;UserModule -->
<g id="edge58" class="edge">
<title>UserAccountManagementRoutingModule&#45;&gt;UserModule</title>
<path fill="none" stroke="black" d="M7095,-122.27C7095,-140.56 7095,-166 7095,-166 7095,-166 7361.84,-166 7361.84,-166"/>
<polygon fill="black" stroke="black" points="7361.84,-169.5 7371.84,-166 7361.84,-162.5 7361.84,-169.5"/>
</g>
</g>
</svg>
